<?xml version="1.0" encoding="utf-8"?>
<svg xmlns="http://www.w3.org/2000/svg" version="1.1" width="250" height="250">
  <g transform="matrix(12.516846, 0, 0, 12.498078, -25.014437, -24.976931)">
    <path d="M 11 3 C 11 2.23 11.833 1.749 12.5 2.134 C 12.809 2.313 13 2.643 13 3 L 13 4.314 C 16.487 4.769 19.232 7.514 19.686 11.001 L 21.002 11.001 C 21.77 11.024 22.225 11.87 21.821 12.523 C 21.645 12.808 21.339 12.985 21.005 12.996 L 19.686 13 C 19.231 16.487 16.487 19.231 13 19.686 L 13 21 C 13 21.77 12.167 22.251 11.5 21.866 C 11.191 21.687 11 21.357 11 21 L 11 19.686 C 7.513 19.231 4.77 16.487 4.315 13 L 3 13 C 2.23 13 1.749 12.167 2.134 11.5 C 2.313 11.191 2.643 11 3 11 L 4.314 11 C 4.769 7.513 7.513 4.77 11 4.315 L 11 3 Z M 12 6.25 C 7.574 6.25 4.807 11.042 7.02 14.875 C 8.047 16.654 9.946 17.75 12 17.75 C 16.426 17.75 19.193 12.958 16.98 9.125 C 15.953 7.346 14.054 6.25 12 6.25 Z" opacity="1"/>
  </g>
</svg>