<?xml version="1.0" encoding="UTF-8"?>
<svg version="1.1" xmlns="http://www.w3.org/2000/svg" width="512" height="512">
<path d="M0 0 C1.04450317 0.00326294 1.04450317 0.00326294 2.11010742 0.0065918 C4.23278268 0.00974873 6.35405999 -0.01369198 8.4765625 -0.0390625 C9.82486803 -0.04133583 11.17317731 -0.04203883 12.52148438 -0.04101562 C14.36407837 -0.04548706 14.36407837 -0.04548706 16.24389648 -0.05004883 C19.30664062 0.32226562 19.30664062 0.32226562 20.97551441 1.55724049 C22.68821215 3.82821565 22.67690588 5.10664051 22.66740417 7.9349823 C22.67152817 8.88149155 22.67565216 9.82800079 22.67990112 10.80319214 C22.6691153 11.83968903 22.65832947 12.87618591 22.6472168 13.9440918 C22.64787392 15.58334877 22.64787392 15.58334877 22.64854431 17.25572205 C22.64645068 20.87573987 22.62309194 24.49529724 22.59960938 28.11523438 C22.59401548 30.62201179 22.58974441 33.12879248 22.58674622 35.63557434 C22.57645373 41.56418219 22.55279832 47.49264177 22.52269775 53.42117339 C22.4800025 62.01680831 22.46427283 70.61249953 22.44527435 79.20821381 C22.41616355 91.24636841 22.35868718 103.28408985 22.30664062 115.32226562 C38.80664062 115.32226562 55.30664062 115.32226562 72.30664062 115.32226562 C72.2834375 108.92078125 72.26023437 102.51929687 72.23632812 95.92382812 C72.22611335 91.87694909 72.21648573 87.83008587 72.20898438 83.78320312 C72.19701228 77.35478428 72.18282446 70.92642221 72.15576172 64.49804688 C72.13408752 59.31743115 72.12208348 54.13687628 72.11688614 48.95621872 C72.11318061 46.97619035 72.105945 44.99616545 72.09518051 43.01616287 C72.08073761 40.25044717 72.07865965 37.48498541 72.07958984 34.71923828 C72.07239929 33.8942131 72.06520874 33.06918793 72.05780029 32.21916199 C72.0785363 26.55036995 72.0785363 26.55036995 74.30664062 24.32226562 C77.36958054 24.12329455 80.34214515 24.04964243 83.40625 24.06347656 C84.82101372 24.0582196 84.82101372 24.0582196 86.26435852 24.05285645 C89.39310998 24.04402835 92.52163672 24.04989211 95.65039062 24.05664062 C97.81750533 24.05529429 99.98461973 24.05335402 102.1517334 24.05084229 C106.69802724 24.04788956 111.24424261 24.05219346 115.79052734 24.06152344 C121.62851966 24.07291802 127.4663281 24.06635934 133.30431366 24.05437851 C137.7805928 24.04716393 142.25682809 24.04944599 146.73310852 24.05463409 C148.88617474 24.05597171 151.03924489 24.054319 153.19230652 24.04967499 C156.19732261 24.04461638 159.20203768 24.05231065 162.20703125 24.06347656 C163.10372025 24.0594281 164.00040924 24.05537964 164.92427063 24.0512085 C171.07811309 24.09373809 171.07811309 24.09373809 173.30664062 26.32226562 C173.49481462 29.15399658 173.55837442 31.88717314 173.53369141 34.71923828 C173.53398346 35.58759811 173.53427551 36.45595795 173.53457642 37.35063171 C173.5331798 40.22929781 173.51760305 43.10770709 173.50195312 45.98632812 C173.49822417 47.97887022 173.49537665 49.97141415 173.49337769 51.96395874 C173.48573194 57.21489502 173.46607539 62.46572111 173.44396973 67.71661377 C173.41993974 74.01330284 173.4107348 80.31002871 173.39906311 86.60675049 C173.37965153 96.17866556 173.34133549 105.75033874 173.30664062 115.32226562 C196.07664063 115.32226562 218.84664062 115.32226562 242.30664062 115.32226562 C242.30664062 111.03226562 242.30664062 106.74226563 242.30664062 102.32226562 C243.85250019 96.31058955 246.41930595 91.3108962 251.30664062 87.32226562 C257.51766319 83.93281439 262.94593059 83.92707549 269.92773438 84.02929688 C271.02763199 84.03354172 272.1275296 84.03778656 273.26075745 84.04216003 C276.75547308 84.05888161 280.24960084 84.09652267 283.74414062 84.13476562 C286.12108539 84.14982085 288.49803924 84.16350779 290.875 84.17578125 C296.68574566 84.20876378 302.49615113 84.25889832 308.30664062 84.32226562 C308.29664787 82.78797409 308.29664787 82.78797409 308.28645325 81.22268677 C308.22572676 71.59898519 308.18070881 61.97532231 308.15120411 52.35147285 C308.13552568 47.4033423 308.11424785 42.45536599 308.08032227 37.50732422 C308.04780623 32.73518221 308.02980403 27.96318888 308.0220089 23.19094467 C308.0164514 21.36720309 308.00559943 19.54346996 307.98945045 17.71979141 C307.96777896 15.17189992 307.96466933 12.62462847 307.96606445 10.07666016 C307.94988571 8.93730515 307.94988571 8.93730515 307.93338013 7.77493286 C307.94587708 5.67581177 307.94587708 5.67581177 308.30664062 2.32226562 C311.90254588 -0.07500454 313.56540634 0.06480758 317.83789062 0.05664062 C319.12308594 0.0540625 320.40828125 0.05148438 321.73242188 0.04882812 C322.73523193 0.0551123 322.73523193 0.0551123 323.75830078 0.06152344 C325.7994561 0.07222795 327.83973138 0.061619 329.88085938 0.04882812 C331.16605469 0.05140625 332.45125 0.05398437 333.77539062 0.05664062 C334.95552734 0.05889648 336.13566406 0.06115234 337.3515625 0.06347656 C340.30664062 0.32226562 340.30664062 0.32226562 343.30664062 2.32226562 C343.66740417 5.33413696 343.66740417 5.33413696 343.6472168 9.25048828 C343.64765488 9.96279099 343.64809296 10.67509369 343.64854431 11.40898132 C343.64645073 13.76837374 343.62309388 16.12705953 343.59960938 18.48632812 C343.59401542 20.12014375 343.58974438 21.75396441 343.58674622 23.38778687 C343.57528157 27.69187264 343.5458007 31.9956556 343.51263428 36.29962158 C343.48196813 40.68994042 343.46824829 45.0803081 343.453125 49.47070312 C343.42093233 58.08802973 343.36971671 66.70511003 343.30664062 75.32226562 C345.61664063 75.32226562 347.92664063 75.32226562 350.30664062 75.32226562 C350.55414063 74.27039063 350.80164063 73.21851562 351.05664062 72.13476562 C352.78128876 66.34321073 355.69983235 63.43728217 360.93164062 60.50976562 C366.87451991 57.74807466 372.18242327 57.07472657 378.50195312 58.98632812 C385.64802438 62.11103609 389.46676439 67.22257504 392.30664062 74.32226562 C403.19664062 74.81726563 403.19664062 74.81726563 414.30664062 75.32226562 C415.78496322 78.27891082 415.36696845 81.06456299 415.30664062 84.32226562 C416.15331299 84.31338318 416.99998535 84.30450073 417.87231445 84.29534912 C425.87534859 84.21499683 433.87824604 84.15419673 441.8815918 84.11501694 C445.99561865 84.09419653 450.10931046 84.06598152 454.22314453 84.02050781 C458.19781763 83.97685039 462.17216972 83.95308685 466.14706421 83.94275665 C467.65885466 83.93540076 469.17062876 83.92103663 470.68228149 83.8993454 C487.47179958 83.66814246 487.47179958 83.66814246 493.81054688 89.7699585 C497.71544847 94.19095931 499.55426736 97.68696757 499.56670284 103.55540848 C499.57376843 104.62087473 499.58083403 105.68634099 499.58811373 106.7840941 C499.58569864 107.953725 499.58328356 109.12335591 499.58079529 110.32843018 C499.58603197 111.57168682 499.59126865 112.81494346 499.59666401 114.09587455 C499.60908785 117.54893727 499.6125071 121.0017965 499.6120671 124.4548676 C499.61371433 128.17824878 499.62677912 131.90159279 499.63825989 135.62495422 C499.66111674 143.76755627 499.66903128 151.91013226 499.67408633 160.05276203 C499.67734266 165.13710481 499.68386477 170.22144001 499.69108772 175.3057785 C499.71065481 189.38300966 499.72705829 203.46023377 499.72996426 217.5374794 C499.73015183 218.43844785 499.7303394 219.3394163 499.73053265 220.26768683 C499.7308989 222.09417232 499.7312626 223.92065781 499.73162376 225.7471433 C499.73180657 226.65381355 499.73198938 227.5604838 499.73217773 228.49462891 C499.73244856 229.85629443 499.73244856 229.85629443 499.73272485 231.24546835 C499.73626643 245.9544562 499.76328728 260.66329765 499.80067562 275.37223473 C499.83875499 290.47389357 499.85812171 305.57547976 499.85842377 320.67718768 C499.85900844 329.15617489 499.86750629 337.63498748 499.89642143 346.11392975 C499.92093044 353.33405373 499.92822157 360.55393939 499.91317391 367.77409372 C499.90600282 371.45722165 499.9068702 375.13987896 499.9295845 378.82295418 C499.95398873 382.81837114 499.93954451 386.81271659 499.92137146 390.8081665 C499.93457143 391.96887452 499.9477714 393.12958254 499.96137136 394.32546353 C499.88910214 401.27485685 498.8943999 405.9726372 494.30664062 411.32226562 C489.537191 415.74273113 485.94336324 417.57427397 479.43475342 417.56277466 C478.23444489 417.56552399 477.03413635 417.56827332 475.79745483 417.57110596 C474.48403107 417.56391541 473.1706073 417.55672485 471.81738281 417.54931641 C470.4177959 417.54875215 469.01820839 417.54906914 467.61862183 417.55020142 C463.82140725 417.55077537 460.02431897 417.53901423 456.22713375 417.5250535 C452.25797605 417.5125532 448.28881547 417.51137619 444.31964111 417.50900269 C436.80447813 417.50278586 429.28937333 417.4863723 421.77423596 417.46630371 C413.21808685 417.44395102 404.66193496 417.43295286 396.10576391 417.42291284 C378.50602317 417.40200625 360.90633657 417.36682632 343.30664062 417.32226562 C343.31663338 418.76259659 343.31663338 418.76259659 343.326828 420.23202515 C343.38755873 429.26707841 343.43257447 438.30209044 343.46207714 447.33730125 C343.47775452 451.98276632 343.49903035 456.62806704 343.53295898 461.2734375 C343.56547889 465.75380704 343.58347802 470.23401819 343.59127235 474.71449661 C343.59682916 476.42659627 343.60767983 478.13868696 343.6238308 479.85071945 C343.64550761 482.24295758 343.64861172 484.63453545 343.6472168 487.02685547 C343.66339554 488.09607994 343.66339554 488.09607994 343.67990112 489.18690491 C343.66740417 491.15853882 343.66740417 491.15853882 343.30664062 494.32226562 C339.71073537 496.71953579 338.04787491 496.57972367 333.77539062 496.58789062 C332.49019531 496.59046875 331.205 496.59304688 329.88085938 496.59570312 C329.21231934 496.59151367 328.5437793 496.58732422 327.85498047 496.58300781 C325.81382515 496.5723033 323.77354987 496.58291225 321.73242188 496.59570312 C320.44722656 496.593125 319.16203125 496.59054687 317.83789062 496.58789062 C316.65775391 496.58563477 315.47761719 496.58337891 314.26171875 496.58105469 C311.30664062 496.32226562 311.30664062 496.32226562 308.30664062 494.32226562 C308.30664062 483.10226562 308.30664062 471.88226563 308.30664062 460.32226562 C213.92664063 460.32226562 119.54664062 460.32226562 22.30664062 460.32226562 C22.30664062 471.21226562 22.30664062 482.10226562 22.30664062 493.32226562 C19.30664063 496.32226562 19.30664063 496.32226562 16.3515625 496.69458008 C15.17142578 496.69159912 13.99128906 496.68861816 12.77539062 496.68554688 C11.49019531 496.68490234 10.205 496.68425781 8.88085938 496.68359375 C8.21231934 496.67529541 7.5437793 496.66699707 6.85498047 496.65844727 C4.81372611 496.63484754 2.77377807 496.63788909 0.73242188 496.64453125 C-9.29291887 496.58922596 -9.29291887 496.58922596 -12.69335938 494.32226562 C-12.99277247 491.60618965 -13.0934559 489.11711741 -13.06808949 486.39801025 C-13.07418057 485.14942773 -13.07418057 485.14942773 -13.08039472 483.87562132 C-13.09042681 481.05591227 -13.0788647 478.23669092 -13.06758118 475.41699219 C-13.0703188 473.38728756 -13.0743683 471.35758434 -13.07962483 469.32788467 C-13.09026418 463.72663525 -13.08204885 458.12554417 -13.07087433 452.52430153 C-13.06206702 446.49287833 -13.07046575 440.46147664 -13.07673645 434.43005371 C-13.08569643 423.28945872 -13.08104095 412.14891621 -13.06957263 401.00832856 C-13.05905108 390.71782834 -13.05449526 380.42734637 -13.05586815 370.13684082 C-13.05595218 369.45518593 -13.05603621 368.77353105 -13.05612279 368.07121995 C-13.05647501 365.30440698 -13.05685902 362.53759402 -13.05728836 359.77078106 C-13.06125658 333.79717495 -13.04852062 307.82360113 -13.0277618 281.85000426 C-13.00939131 258.75611448 -13.00357922 235.66225567 -13.0090332 212.56835938 C-13.00937964 211.08558607 -13.00972573 209.60281277 -13.01007149 208.12003946 C-13.01024249 207.386997 -13.01041348 206.65395454 -13.01058966 205.89869867 C-13.01144316 202.2089347 -13.01226695 198.51917072 -13.01305866 194.82940674 C-13.01329428 193.73759066 -13.01329428 193.73759066 -13.01353466 192.6237177 C-13.01752152 173.34691549 -13.01205345 154.07011628 -13.00354737 134.79331589 C-13.0026403 132.71998103 -13.00173465 130.64664616 -13.00083214 128.5733113 C-13.00023103 127.1978193 -12.99962241 125.8223273 -12.99900623 124.44683531 C-12.99477885 114.84328936 -12.9942091 105.23974927 -12.99611173 95.63620269 C-12.99855087 83.26235865 -12.99429815 70.88854219 -12.97890172 58.5147047 C-12.97163404 52.54394411 -12.96760082 46.57322708 -12.97214508 40.60246277 C-12.97619787 35.14488934 -12.97112392 29.68740616 -12.958519 24.22984648 C-12.95557188 22.24738253 -12.95605168 20.26491017 -12.96016208 18.28244829 C-12.96521511 15.60369579 -12.95815382 12.92525164 -12.94783497 10.246521 C-12.95223145 9.46300876 -12.95662794 8.67949653 -12.96115765 7.8722415 C-12.89231727 -1.40398433 -7.71216313 0.0319222 0 0 Z M-4.69335938 9.32226562 C-4.69335938 167.06226563 -4.69335938 324.80226563 -4.69335938 487.32226562 C1.24664063 487.32226562 7.18664063 487.32226562 13.30664062 487.32226562 C13.30664062 329.58226562 13.30664062 171.84226562 13.30664062 9.32226562 C7.36664062 9.32226562 1.42664062 9.32226562 -4.69335938 9.32226562 Z M317.30664062 9.32226562 C317.30664062 34.07226562 317.30664062 58.82226562 317.30664062 84.32226562 C320.60664063 84.32226562 323.90664063 84.32226562 327.30664062 84.32226562 C327.63664062 81.68226562 327.96664063 79.04226562 328.30664062 76.32226562 C331.27664063 75.82726562 331.27664063 75.82726562 334.30664062 75.32226562 C334.30664062 53.54226562 334.30664062 31.76226562 334.30664062 9.32226562 C328.69664062 9.32226562 323.08664062 9.32226562 317.30664062 9.32226562 Z M81.30664062 32.32226562 C81.30664062 59.71226563 81.30664062 87.10226563 81.30664062 115.32226562 C108.69664063 115.32226562 136.08664063 115.32226562 164.30664062 115.32226562 C164.30664062 87.93226562 164.30664062 60.54226562 164.30664062 32.32226562 C156.05664062 32.32226562 147.80664062 32.32226562 139.30664062 32.32226562 C138.97664063 41.23226562 138.64664063 50.14226563 138.30664062 59.32226562 C130.54348273 58.21324307 130.54348273 58.21324307 127.68164062 56.19726562 C124.58588531 54.1199144 124.58588531 54.1199144 121.80664062 54.32226562 C119.03346703 55.43153506 116.63667509 56.83467203 114.15039062 58.48242188 C112.30664062 59.32226562 112.30664062 59.32226562 107.30664062 59.32226562 C106.97664063 50.41226563 106.64664063 41.50226562 106.30664062 32.32226562 C98.05664062 32.32226562 89.80664062 32.32226562 81.30664062 32.32226562 Z M115.30664062 32.32226562 C115.30664062 37.27226563 115.30664062 42.22226562 115.30664062 47.32226562 C116.95664063 46.66226563 118.60664063 46.00226562 120.30664062 45.32226562 C124.69742363 44.96383436 126.23929269 45.28859166 130.30664062 47.32226562 C130.30664062 42.37226562 130.30664062 37.42226563 130.30664062 32.32226562 C125.35664063 32.32226562 120.40664062 32.32226562 115.30664062 32.32226562 Z M361.11914062 72.57226562 C359.04133705 75.72479519 358.28256502 78.69740359 357.30664062 82.32226562 C355.01355099 83.46881044 353.50754406 83.5195568 350.95507812 83.63867188 C349.80531494 83.69583374 349.80531494 83.69583374 348.63232422 83.75415039 C347.65859863 83.79725342 346.68487305 83.84035645 345.68164062 83.88476562 C342.58789062 84.02914062 339.49414062 84.17351562 336.30664062 84.32226562 C336.30664062 93.89226562 336.30664062 103.46226563 336.30664062 113.32226562 C359.40664063 113.32226562 382.50664062 113.32226562 406.30664062 113.32226562 C406.30664062 103.75226563 406.30664062 94.18226562 406.30664062 84.32226562 C395.41664063 83.82726562 395.41664063 83.82726562 384.30664062 83.32226562 C383.64664063 80.35226563 382.98664063 77.38226563 382.30664062 74.32226562 C380.13117819 70.91404115 378.20004531 68.58189655 374.30664062 67.32226562 C368.34506791 66.68805576 365.22959238 68.34437239 361.11914062 72.57226562 Z M254.30664062 97.32226562 C250.44137189 102.95851629 250.88663314 108.62972374 250.9256897 115.20275879 C250.92100973 116.40829989 250.91632975 117.61384099 250.91150796 118.85591364 C250.90162098 122.19441749 250.90516737 125.53241414 250.91446662 128.87088704 C250.92125741 132.47421964 250.91077574 136.07750809 250.90252686 139.68083191 C250.88918763 146.73666027 250.89206809 153.79239289 250.90076478 160.848225 C250.90754017 166.58268798 250.90845867 172.31712413 250.90519333 178.05158997 C250.90473363 178.86777625 250.90427393 179.68396254 250.9038003 180.52488175 C250.90284112 182.18295317 250.90186848 183.84102458 250.90088253 185.49909598 C250.89232808 201.0465137 250.90216362 216.59387836 250.91828363 232.14128739 C250.93168686 245.4814252 250.92935878 258.82148469 250.91552734 272.16162109 C250.8994725 287.65343881 250.89315206 303.14521002 250.90236413 318.63703489 C250.90331978 320.28900368 250.90426289 321.94097248 250.90519333 323.59294128 C250.90565616 324.40573961 250.90611898 325.21853794 250.90659583 326.05596653 C250.90918601 331.78348225 250.90481413 337.51096846 250.89775467 343.23847961 C250.88934053 350.218499 250.89161797 357.19841717 250.9075969 364.17842495 C250.91548082 367.73968522 250.91856926 371.30077674 250.90864944 374.86203575 C250.89806008 378.7220434 250.91070499 382.58177477 250.9256897 386.44177246 C250.91899753 387.56803244 250.91230537 388.69429242 250.90541041 389.85468149 C250.94739399 395.41357856 251.08765312 399.56301671 254.30664062 404.32226562 C259.91011569 409.77828082 265.50566732 409.4702195 272.9850769 409.45597839 C274.29489696 409.45937673 274.29489696 409.45937673 275.63117802 409.46284372 C278.55670375 409.46917303 281.48218303 409.46835504 284.40771484 409.4675293 C286.50544291 409.47052144 288.60317043 409.4739241 290.70089722 409.47770691 C296.39923946 409.48654516 302.09756669 409.48888494 307.79591513 409.4895227 C312.55242609 409.49047213 317.30893355 409.49415079 322.06544316 409.49769479 C333.2869574 409.50583858 344.50846361 409.50827908 355.72998047 409.50756836 C367.30713179 409.50696747 378.88423654 409.5175217 390.46137607 409.53331202 C400.40035976 409.54638517 410.33932821 409.55175236 420.27832043 409.55111295 C426.21470662 409.55085791 432.15105142 409.55371247 438.08742905 409.564291 C443.67046037 409.57396822 449.25341068 409.5740537 454.83644485 409.56677437 C456.8846829 409.56572809 458.93292599 409.56809399 460.9811554 409.57413483 C463.77894463 409.58185145 466.57645386 409.57721205 469.37423706 409.56950378 C470.58753073 409.57721913 470.58753073 409.57721913 471.82533538 409.58509034 C477.12275756 409.55287859 482.68043412 409.33019481 487.04882812 405.99023438 C490.79122192 401.09931282 491.42951319 397.20908299 491.43806839 391.18471813 C491.44190953 390.16602837 491.44575068 389.1473386 491.44970822 388.09777945 C491.44884174 386.98553466 491.44797526 385.87328987 491.44708252 384.7273407 C491.45005364 383.54039936 491.45302476 382.35345803 491.45608592 381.13054878 C491.46325798 377.83941643 491.46594459 374.54833629 491.46668339 371.25719988 C491.4685367 367.70631174 491.47608537 364.15543484 491.4828186 360.60455322 C491.49639041 352.84216458 491.50242466 345.07978111 491.50682926 337.31738257 C491.50959326 332.46972847 491.51383087 327.62207636 491.51833344 322.7744236 C491.5305239 309.34996383 491.54082411 295.92550565 491.54420853 282.50104046 C491.54442809 281.64215369 491.54464766 280.78326691 491.54487388 279.89835327 C491.54509216 279.03742758 491.54531043 278.17650189 491.54553533 277.28948754 C491.54597879 275.54496109 491.54642535 273.80043465 491.546875 272.0559082 C491.54709643 271.1905653 491.54731786 270.32522239 491.547546 269.43365697 C491.55149451 255.41022621 491.56895116 241.38684741 491.59223452 227.36343672 C491.61595179 212.96235969 491.62841052 198.56130873 491.62957644 184.16021186 C491.63049292 176.07587689 491.63623841 167.99160963 491.65439606 159.90729332 C491.66980201 153.02393779 491.67491454 146.14067091 491.66665795 139.25730141 C491.66275338 135.74642179 491.66367154 132.23572067 491.6777153 128.72486305 C491.69038906 124.91580182 491.68458226 121.10719933 491.6741333 117.29814148 C491.68218971 116.19258886 491.69024611 115.08703623 491.69854665 113.94798201 C491.65845081 107.70217459 491.04396388 102.97422868 488.30664062 97.32226562 C484.11733831 93.57140506 481.01773675 92.82633282 475.47509766 92.86816406 C474.82073227 92.86757996 474.16636688 92.86699585 473.49217224 92.86639404 C471.34904203 92.86916041 469.20733751 92.90017926 467.06445312 92.93164062 C465.57087972 92.93910827 464.07729646 92.94479873 462.58370972 92.9487915 C458.66752702 92.96400688 454.75194513 93.0032522 450.83599854 93.04760742 C446.83410772 93.08864933 442.83211909 93.10682146 438.83007812 93.12695312 C430.9886577 93.16975145 423.14772407 93.23795187 415.30664062 93.32226562 C415.30664062 96.95226562 415.30664062 100.58226563 415.30664062 104.32226562 C416.52479713 104.33772682 416.52479713 104.33772682 417.76756287 104.35350037 C425.40500551 104.45130542 433.04236384 104.5537951 440.67967129 104.66160488 C444.60648676 104.71686977 448.53330963 104.77029532 452.46020508 104.81958008 C456.24684905 104.86717124 460.03339979 104.91951187 463.81993294 104.97520638 C465.267657 104.9956538 466.71540666 105.01436287 468.16317558 105.03133965 C470.18428222 105.05533071 472.20530673 105.08596638 474.22631836 105.11694336 C475.37881577 105.13248764 476.53131317 105.14803192 477.71873474 105.16404724 C480.30664062 105.32226562 480.30664062 105.32226562 481.30664062 106.32226562 C481.40445431 107.86429419 481.43219573 109.41081257 481.43248177 110.95594025 C481.43508951 111.96401592 481.43769726 112.97209159 481.44038403 114.01071501 C481.43815331 115.1316041 481.43592259 116.2524932 481.43362427 117.40734863 C481.43518426 118.58764412 481.43674425 119.76793962 481.43835151 120.98400164 C481.44166477 124.27488648 481.44045234 127.56571475 481.43736529 130.85659623 C481.43511305 134.39991853 481.43858993 137.94323571 481.44134521 141.48655701 C481.44580379 148.43374847 481.44482606 155.38092917 481.44193257 162.32812107 C481.43967888 167.97168305 481.43936587 173.61524201 481.44045639 179.25880432 C481.44060962 180.06045951 481.44076286 180.86211469 481.44092073 181.68806246 C481.44124044 183.3163482 481.44156465 184.94463393 481.44189332 186.57291967 C481.44474837 201.85976195 481.4414607 217.14659825 481.43609296 232.43343955 C481.4316249 245.56484161 481.43240082 258.69623482 481.43701172 271.82763672 C481.44235704 287.0578671 481.44447368 302.28809223 481.44139946 317.51832342 C481.44108089 319.14079126 481.44076652 320.76325909 481.44045639 322.38572693 C481.44030211 323.1841191 481.44014784 323.98251126 481.43998889 324.80509713 C481.43912361 330.44522574 481.44058685 336.08535103 481.44293594 341.72547913 C481.44573368 348.59410604 481.44499624 355.46272151 481.4396552 362.33134711 C481.43701782 365.83924592 481.43601372 369.34712564 481.43930435 372.85502434 C481.44280973 376.64908802 481.43863886 380.44312007 481.43362427 384.23718262 C481.43585499 385.35807171 481.43808571 386.47896081 481.44038403 387.63381624 C481.43777628 388.64189191 481.43516854 389.64996758 481.43248177 390.688591 C481.43231941 391.56558261 481.43215706 392.44257422 481.43198979 393.34614134 C481.30664062 395.32226562 481.30664062 395.32226562 480.30664062 396.32226562 C477.4745509 396.42018506 474.66684782 396.45219158 471.83433533 396.44252014 C470.93509938 396.44337457 470.03586344 396.44422899 469.10937792 396.44510931 C466.07216643 396.44676687 463.0350092 396.44123824 459.99780273 396.43579102 C457.83019512 396.43550918 455.66258741 396.43566681 453.49497986 396.43623352 C447.59026042 396.43652163 441.6855611 396.4306228 435.78084636 396.42365956 C429.61753487 396.41742819 423.45422297 396.4168224 417.29090881 396.41563416 C405.61075163 396.4125202 393.93060375 396.40430595 382.25045067 396.39428467 C368.95684836 396.38312552 355.66324631 396.37761358 342.36964023 396.37258923 C315.01530186 396.36212338 287.66097176 396.3445227 260.30664062 396.32226562 C260.41118986 359.39498271 260.52095356 322.46771883 260.63775757 285.54047257 C260.65152793 281.18559186 260.66525491 276.83071101 260.67895508 272.47583008 C260.68168338 271.6088141 260.68441169 270.74179813 260.68722267 269.84850895 C260.73135502 255.79096342 260.77196885 241.7334098 260.81129324 227.6758501 C260.85169075 213.26252468 260.89584416 198.84921433 260.94351918 184.43591112 C260.97284209 175.53478163 260.99919924 166.63365333 261.0218196 157.73250424 C261.03758961 151.63716569 261.05699207 145.54184562 261.07930904 139.44652755 C261.09209538 135.92446612 261.10322464 132.40241901 261.11005974 128.88034058 C261.11749414 125.07088157 261.1325492 121.26147536 261.14842224 117.45204163 C261.14940035 116.32657946 261.15037845 115.2011173 261.1513862 114.04155022 C261.15686065 113.02937445 261.16233509 112.01719869 261.16797543 110.97435093 C261.17063347 110.09377948 261.17329151 109.21320804 261.1760301 108.30595261 C261.30664062 106.32226562 261.30664062 106.32226562 262.30664062 105.32226562 C264.33079054 105.19851393 266.35921799 105.14429252 268.38696289 105.11694336 C269.68823624 105.09699814 270.98950958 105.07705292 272.33021545 105.0565033 C273.76115803 105.03951763 275.19210187 105.02263887 276.62304688 105.00585938 C278.07893983 104.98529657 279.53482672 104.96430028 280.9907074 104.94288635 C284.82936709 104.88759602 288.66808127 104.8382176 292.50683594 104.79003906 C296.4212735 104.73987471 300.33563158 104.68416227 304.25 104.62890625 C311.93547963 104.52123959 319.6210252 104.41981369 327.30664062 104.32226562 C327.30664062 100.69226563 327.30664062 97.06226562 327.30664062 93.32226562 C318.67462244 93.22944709 310.04277693 93.15844096 301.41036797 93.11501694 C297.4016541 93.09417192 293.39328252 93.06591156 289.38476562 93.02050781 C285.51384254 92.97693863 281.64324797 92.95310531 277.77209854 92.94275665 C276.29772904 92.93538502 274.82337684 92.92098971 273.3491478 92.8993454 C271.27843603 92.87016205 269.20906902 92.86631553 267.13818359 92.86816406 C265.96125946 92.85928162 264.78433533 92.85039917 263.57174683 92.84124756 C259.49250308 93.44220502 257.4403827 94.65839259 254.30664062 97.32226562 Z M269.30664062 113.32226562 C269.30664062 204.07226562 269.30664062 294.82226562 269.30664062 388.32226562 C336.62664062 388.32226562 403.94664062 388.32226562 473.30664062 388.32226562 C473.30664062 297.57226562 473.30664062 206.82226562 473.30664062 113.32226562 C454.16664063 113.32226562 435.02664063 113.32226562 415.30664062 113.32226562 C414.97664062 115.63226563 414.64664063 117.94226563 414.30664062 120.32226562 C412.54335591 122.08555034 410.21146919 121.44842206 407.86257935 121.45779419 C406.69213577 121.45475784 406.69213577 121.45475784 405.49804688 121.45166016 C404.68020721 121.45341248 403.86236755 121.45516479 403.01974487 121.45697021 C400.30285552 121.46138947 397.5860307 121.45845049 394.86914062 121.45507812 C392.98966459 121.45575114 391.11018863 121.45672115 389.23071289 121.45797729 C385.28628717 121.45945437 381.34188404 121.45729941 377.39746094 121.45263672 C372.3295156 121.44693943 367.26162321 121.45021838 362.19367981 121.45620918 C358.31107175 121.45981454 354.42847635 121.45867633 350.54586792 121.45608139 C348.6766662 121.45541205 346.80746334 121.45624078 344.93826294 121.45856094 C342.33055559 121.46108706 339.72293521 121.45724747 337.11523438 121.45166016 C336.33493866 121.45368439 335.55464294 121.45570862 334.7507019 121.45779419 C329.42090316 121.43652816 329.42090316 121.43652816 328.30664062 120.32226562 C327.81164062 116.85726562 327.81164062 116.85726562 327.30664062 113.32226562 C308.16664063 113.32226562 289.02664063 113.32226562 269.30664062 113.32226562 Z M22.30664062 124.32226562 C22.30664062 130.26226562 22.30664062 136.20226562 22.30664062 142.32226562 C94.90664063 142.32226562 167.50664063 142.32226562 242.30664062 142.32226562 C242.30664062 136.38226563 242.30664062 130.44226563 242.30664062 124.32226562 C169.70664062 124.32226562 97.10664062 124.32226562 22.30664062 124.32226562 Z M22.30664062 151.32226562 C22.30664062 190.59226563 22.30664062 229.86226563 22.30664062 270.32226562 C38.80664062 270.32226562 55.30664062 270.32226562 72.30664062 270.32226562 C72.63664062 240.29226562 72.96664062 210.26226562 73.30664062 179.32226562 C129.07664063 178.99226563 184.84664063 178.66226563 242.30664062 178.32226562 C242.30664062 169.41226563 242.30664062 160.50226563 242.30664062 151.32226562 C169.70664062 151.32226562 97.10664062 151.32226562 22.30664062 151.32226562 Z M81.30664062 187.32226562 C81.30664062 214.71226562 81.30664062 242.10226563 81.30664062 270.32226562 C108.69664063 270.32226562 136.08664063 270.32226562 164.30664062 270.32226562 C164.30664062 242.93226563 164.30664062 215.54226562 164.30664062 187.32226562 C156.05664062 187.32226562 147.80664062 187.32226562 139.30664062 187.32226562 C139.01735439 195.50458184 139.01735439 195.50458184 138.73852539 203.68725586 C138.70041748 204.69989502 138.66230957 205.71253418 138.62304688 206.75585938 C138.58638916 207.79798584 138.54973145 208.8401123 138.51196289 209.91381836 C138.30664062 212.32226562 138.30664062 212.32226562 137.30664062 213.32226562 C132.85097576 213.04946982 130.19675773 212.3391336 126.43164062 209.94726562 C124.47270399 208.76333384 124.47270399 208.76333384 122.30664062 208.32226562 C119.71858657 209.26731719 117.7262518 210.49628914 115.48242188 212.08789062 C112.88237198 213.56296382 111.25157661 213.62328123 108.30664062 213.32226562 C106.56157447 211.57719947 107.07381279 209.13187419 106.99023438 206.75585938 C106.93307251 205.23690063 106.93307251 205.23690063 106.87475586 203.68725586 C106.83165283 202.39118408 106.7885498 201.0951123 106.74414062 199.75976562 C106.59976563 195.65539062 106.45539063 191.55101562 106.30664062 187.32226562 C98.05664062 187.32226562 89.80664062 187.32226562 81.30664062 187.32226562 Z M115.30664062 187.32226562 C115.30664062 192.27226562 115.30664062 197.22226563 115.30664062 202.32226562 C117.28664062 201.33226562 119.26664063 200.34226563 121.30664062 199.32226562 C123.93164062 199.57226562 123.93164062 199.57226562 126.30664062 200.32226562 C127.62664062 200.65226563 128.94664062 200.98226562 130.30664062 201.32226562 C130.30664062 196.70226562 130.30664062 192.08226562 130.30664062 187.32226562 C125.35664063 187.32226562 120.40664062 187.32226562 115.30664062 187.32226562 Z M173.30664062 187.32226562 C173.30664062 214.71226562 173.30664062 242.10226563 173.30664062 270.32226562 C196.07664063 270.32226562 218.84664062 270.32226562 242.30664062 270.32226562 C242.30664062 242.93226563 242.30664062 215.54226562 242.30664062 187.32226562 C238.67664063 187.32226562 235.04664063 187.32226562 231.30664062 187.32226562 C231.21576172 189.88621094 231.21576172 189.88621094 231.12304688 192.50195312 C231.03865184 194.73373306 230.95400332 196.96550342 230.86914062 199.19726562 C230.82982422 200.32519531 230.79050781 201.453125 230.75 202.61523438 C230.6871582 204.22978516 230.6871582 204.22978516 230.62304688 205.87695312 C230.58638916 206.87194824 230.54973145 207.86694336 230.51196289 208.89208984 C230.30664062 211.32226562 230.30664062 211.32226562 229.30664062 213.32226562 C224.77150312 213.90369351 222.63463656 213.00063127 218.99414062 210.50976562 C216.7510209 209.02893107 216.7510209 209.02893107 214.30664062 208.32226562 C211.62268781 209.19509581 209.71960245 210.39056207 207.44726562 212.05273438 C204.86351359 213.58506907 203.26299873 213.62896264 200.30664062 213.32226562 C198.56157447 211.57719947 199.07381279 209.13187419 198.99023438 206.75585938 C198.93307251 205.23690063 198.93307251 205.23690063 198.87475586 203.68725586 C198.83165283 202.39118408 198.7885498 201.0951123 198.74414062 199.75976562 C198.59976563 195.65539062 198.45539063 191.55101562 198.30664062 187.32226562 C190.05664062 187.32226562 181.80664062 187.32226562 173.30664062 187.32226562 Z M207.30664062 187.32226562 C207.30664062 191.94226563 207.30664062 196.56226563 207.30664062 201.32226562 C208.95664063 200.66226563 210.60664063 200.00226563 212.30664062 199.32226562 C216.34300096 199.65176443 218.62251714 200.48020388 222.30664062 202.32226562 C222.30664062 197.37226563 222.30664062 192.42226562 222.30664062 187.32226562 C217.35664063 187.32226562 212.40664062 187.32226562 207.30664062 187.32226562 Z M22.30664062 279.32226562 C22.30664062 284.93226563 22.30664062 290.54226563 22.30664062 296.32226562 C94.90664063 296.32226562 167.50664063 296.32226562 242.30664062 296.32226562 C242.30664062 290.71226562 242.30664062 285.10226562 242.30664062 279.32226562 C169.70664062 279.32226562 97.10664062 279.32226562 22.30664062 279.32226562 Z M22.30664062 305.32226562 C22.30664062 344.59226562 22.30664062 383.86226563 22.30664062 424.32226562 C38.80664062 424.32226562 55.30664062 424.32226562 72.30664062 424.32226562 C72.36722656 417.99296875 72.4278125 411.66367187 72.49023438 405.14257812 C72.53071247 401.14126896 72.57147739 397.13996687 72.61328125 393.13867188 C72.67965788 386.7827388 72.74495191 380.42680714 72.80395508 374.07080078 C72.85157199 368.94849617 72.90391382 363.82625994 72.95958138 358.70403671 C72.98001706 356.74636403 72.9987281 354.78867259 73.01571465 352.83096695 C73.03973181 350.09638919 73.06979 347.3619414 73.10131836 344.62744141 C73.10707382 343.81176697 73.11282928 342.99609253 73.11875916 342.15570068 C73.19258846 336.55036995 73.19258846 336.55036995 74.30664062 334.32226562 C129.74664062 333.99226563 185.18664062 333.66226562 242.30664062 333.32226562 C242.30664062 324.08226562 242.30664062 314.84226562 242.30664062 305.32226562 C169.70664062 305.32226562 97.10664062 305.32226562 22.30664062 305.32226562 Z M81.30664062 342.32226562 C81.30664062 369.38226563 81.30664062 396.44226563 81.30664062 424.32226562 C108.69664063 424.32226562 136.08664063 424.32226562 164.30664062 424.32226562 C164.30664062 397.26226562 164.30664062 370.20226562 164.30664062 342.32226562 C156.05664062 342.32226562 147.80664062 342.32226562 139.30664062 342.32226562 C138.97664063 350.57226562 138.64664063 358.82226562 138.30664062 367.32226562 C132.30664062 368.32226562 132.30664062 368.32226562 130.11132812 367.29101562 C129.47453125 366.80632812 128.83773437 366.32164062 128.18164062 365.82226562 C125.51803542 363.70493409 125.51803542 363.70493409 122.27539062 363.53710938 C119.7458028 364.54593309 117.54443547 365.97671977 115.28320312 367.48242188 C113.30664062 368.32226562 113.30664062 368.32226562 107.30664062 368.32226562 C106.81164062 355.45226562 106.81164062 355.45226562 106.30664062 342.32226562 C98.05664062 342.32226562 89.80664062 342.32226562 81.30664062 342.32226562 Z M115.30664062 342.32226562 C115.30664062 346.94226563 115.30664062 351.56226563 115.30664062 356.32226562 C116.95664063 355.66226562 118.60664063 355.00226563 120.30664062 354.32226562 C123.87166317 354.62959516 126.91497554 355.1917106 130.30664062 356.32226562 C130.30664062 351.70226562 130.30664062 347.08226562 130.30664062 342.32226562 C125.35664063 342.32226562 120.40664062 342.32226562 115.30664062 342.32226562 Z M173.30664062 342.32226562 C173.30664062 369.38226563 173.30664062 396.44226563 173.30664062 424.32226562 C200.36664063 424.32226562 227.42664063 424.32226562 255.30664062 424.32226562 C256.15705925 416.86229368 256.15705925 416.86229368 253.44335938 414.07226562 C252.23099609 413.20601562 252.23099609 413.20601562 250.99414062 412.32226562 C246.46812154 409.0571182 244.61860166 405.66915 243.30664062 400.32226562 C242.85412682 395.83302483 242.8183992 391.3630868 242.79492188 386.85351562 C242.77697067 385.5774646 242.75901947 384.30141357 242.74052429 382.98669434 C242.69572223 379.61984862 242.66332243 376.25336057 242.63708496 372.88635254 C242.60712707 369.44037935 242.56064976 365.99463156 242.515625 362.54882812 C242.43084942 355.80672504 242.36396741 349.06465571 242.30664062 342.32226562 C238.67664063 342.32226562 235.04664063 342.32226562 231.30664062 342.32226562 C230.97664063 350.90226562 230.64664063 359.48226563 230.30664062 368.32226562 C223.66760319 368.32226562 223.66760319 368.32226562 219.74414062 365.69726562 C216.41912926 363.58385124 216.41912926 363.58385124 212.61914062 363.82226562 C211.85601562 364.31726563 211.09289062 364.81226563 210.30664062 365.32226562 C204.7984439 368.42062628 204.7984439 368.42062628 199.30664062 367.32226562 C198.81164062 354.94726562 198.81164062 354.94726562 198.30664062 342.32226562 C190.05664062 342.32226562 181.80664062 342.32226562 173.30664062 342.32226562 Z M207.30664062 342.32226562 C207.30664062 346.94226563 207.30664062 351.56226563 207.30664062 356.32226562 C208.95664063 355.66226562 210.60664063 355.00226563 212.30664062 354.32226562 C216.5468214 353.89824755 218.06175464 354.62431123 222.30664062 356.32226562 C222.30664062 351.70226562 222.30664062 347.08226562 222.30664062 342.32226562 C217.35664063 342.32226562 212.40664062 342.32226562 207.30664062 342.32226562 Z M264.30664062 417.32226562 C264.30664062 419.63226563 264.30664062 421.94226563 264.30664062 424.32226562 C278.82664062 424.32226562 293.34664063 424.32226562 308.30664062 424.32226562 C308.30664062 422.01226562 308.30664062 419.70226562 308.30664062 417.32226562 C293.78664063 417.32226562 279.26664062 417.32226562 264.30664062 417.32226562 Z M317.30664062 417.32226562 C317.30664062 440.42226563 317.30664062 463.52226562 317.30664062 487.32226562 C322.91664063 487.32226562 328.52664063 487.32226562 334.30664062 487.32226562 C334.30664062 464.22226562 334.30664062 441.12226563 334.30664062 417.32226562 C328.69664062 417.32226562 323.08664062 417.32226562 317.30664062 417.32226562 Z M22.30664062 433.32226562 C22.30664062 439.26226562 22.30664062 445.20226562 22.30664062 451.32226562 C116.68664062 451.32226562 211.06664063 451.32226562 308.30664062 451.32226562 C308.30664062 445.38226563 308.30664062 439.44226563 308.30664062 433.32226562 C213.92664063 433.32226562 119.54664062 433.32226562 22.30664062 433.32226562 Z " fill="#000000" transform="translate(12.693359375,7.677734375)"/>
<path d="M0 0 C1.09763672 -0.02449219 2.19527344 -0.04898438 3.32617188 -0.07421875 C4.91075195 -0.08001953 4.91075195 -0.08001953 6.52734375 -0.0859375 C7.492771 -0.09415527 8.45819824 -0.10237305 9.45288086 -0.11083984 C13.02096085 0.55343925 13.93040112 1.4168267 16.0625 4.375 C16.66032817 7.68354867 16.58794421 10.9584787 16.54833984 14.3125 C16.55213654 15.32103027 16.55593323 16.32956055 16.55984497 17.36865234 C16.56725806 20.70441729 16.54585663 24.03931237 16.5234375 27.375 C16.52105343 29.69140521 16.52014768 32.00781237 16.5206604 34.32421875 C16.51753107 39.17981057 16.50095519 44.03510739 16.47412109 48.890625 C16.44014131 55.11848902 16.43249246 61.34602875 16.43401146 67.57397461 C16.43346791 72.35745344 16.4225031 77.1408612 16.40800858 81.92431641 C16.40163871 84.22086041 16.39770124 86.51741248 16.39622116 88.81396484 C16.39189025 92.02194975 16.37439334 95.22958919 16.35302734 98.4375 C16.35393372 99.38931152 16.35484009 100.34112305 16.35577393 101.32177734 C16.34297897 102.6339624 16.34297897 102.6339624 16.32992554 103.97265625 C16.32657385 104.73070557 16.32322216 105.48875488 16.31976891 106.26977539 C16.02791402 108.65801612 15.24713752 110.29694093 14.0625 112.375 C9.60418018 112.40391546 5.14588431 112.42176981 0.6875 112.4375 C-0.58351563 112.44587891 -1.85453125 112.45425781 -3.1640625 112.46289062 C-4.37578125 112.46611328 -5.5875 112.46933594 -6.8359375 112.47265625 C-8.51695557 112.48051147 -8.51695557 112.48051147 -10.23193359 112.48852539 C-12.9375 112.375 -12.9375 112.375 -14.9375 111.375 C-15.00752065 97.19774308 -15.06025469 83.02051289 -15.09293652 68.84311867 C-15.10861899 62.26058598 -15.1299044 55.67816913 -15.16381836 49.09570312 C-15.19631965 42.74798818 -15.21433354 36.40038493 -15.22213173 30.05259323 C-15.22769186 27.62598282 -15.23854877 25.1993788 -15.25469017 22.7728157 C-15.27634154 19.38437751 -15.27947206 15.99640593 -15.27807617 12.60791016 C-15.288862 11.59587021 -15.29964783 10.58383026 -15.3107605 9.54112244 C-15.30663651 8.62123032 -15.30251251 7.7013382 -15.29826355 6.75357056 C-15.30102893 5.95161066 -15.30379431 5.14965076 -15.30664349 4.32338905 C-15.18482614 3.68042067 -15.06300879 3.03745228 -14.9375 2.375 C-10.27688611 -0.73207593 -5.48191488 0.00641535 0 0 Z M-5.9375 9.375 C-5.9375 40.395 -5.9375 71.415 -5.9375 103.375 C-1.6475 103.375 2.6425 103.375 7.0625 103.375 C7.0625 72.355 7.0625 41.335 7.0625 9.375 C2.7725 9.375 -1.5175 9.375 -5.9375 9.375 Z " fill="#000000" transform="translate(450.9375,234.625)"/>
<path d="M0 0 C0.70874456 0.00446144 1.41748913 0.00892289 2.1477108 0.01351953 C2.89938215 0.01039954 3.6510535 0.00727956 4.42550278 0.00406504 C6.9574957 -0.00394582 9.48925102 0.00242059 12.02124596 0.00869775 C13.83108219 0.00598925 15.64091732 0.00242912 17.45075035 -0.00192237 C22.37625629 -0.01106549 27.30167875 -0.00749422 32.2271862 -0.0011642 C37.37257176 0.00388587 42.51794998 -0.00079288 47.6633358 -0.00393653 C56.30543875 -0.00757908 64.94750756 -0.00276951 73.58960533 0.00674462 C83.59277075 0.01762972 93.59585465 0.01410435 103.5990181 0.00309181 C112.17482198 -0.00597284 120.75060126 -0.00727037 129.32640839 -0.00203085 C134.45392888 0.00109338 139.58141101 0.00148581 144.70892906 -0.00510383 C149.52859644 -0.01086474 154.34815832 -0.0069035 159.16781425 0.00468469 C160.94078712 0.00733801 162.7137688 0.00655479 164.4867382 0.00215936 C166.89891563 -0.00327115 169.31075075 0.00350733 171.72290611 0.01351953 C172.78602296 0.00682736 172.78602296 0.00682736 173.87061691 0 C178.70700827 0.03918662 178.70700827 0.03918662 180.93530846 2.26748681 C181.18530846 4.76748681 181.18530846 4.76748681 180.93530846 7.26748681 C178.49137957 9.7114157 177.17469457 9.50663642 173.8397817 9.53031152 C173.12646407 9.52516796 172.41314644 9.5200244 171.67821312 9.51472497 C170.54352241 9.51834659 170.54352241 9.51834659 169.38590866 9.52204138 C166.83775434 9.52770091 164.28984821 9.51899842 161.74170494 9.51040673 C159.92039484 9.51147905 158.09908507 9.51341697 156.27777672 9.5161593 C151.32134101 9.52101852 146.36499492 9.51333882 141.40857005 9.50320625 C136.23202342 9.49444449 131.05547976 9.49618282 125.87892723 9.49656701 C117.18554744 9.49562959 108.4922025 9.48693474 99.79883385 9.47329736 C89.73318334 9.45756609 79.66757101 9.45229938 69.6019091 9.45303291 C59.93659396 9.45364226 50.27129131 9.44854566 40.60597992 9.4402411 C36.48437019 9.43670117 32.36276489 9.43487684 28.24115372 9.43434739 C23.39278696 9.43334631 18.54445253 9.42726899 13.69609642 9.41718125 C11.91141584 9.41424883 10.12673154 9.41303237 8.34204865 9.41360879 C5.91647092 9.41409593 3.49098513 9.40847902 1.06542015 9.40119958 C-0.00790238 9.40352248 -0.00790238 9.40352248 -1.10290819 9.40589231 C-5.95051292 9.38166543 -5.95051292 9.38166543 -7.06469154 8.26748681 C-7.25219154 5.32998681 -7.25219154 5.32998681 -7.06469154 2.26748681 C-4.62726345 -0.16994128 -3.32618685 0.02695026 0 0 Z " fill="#000000" transform="translate(297.0646915435791,362.7325131893158)"/>
<path d="M0 0 C1.52173828 -0.00193359 1.52173828 -0.00193359 3.07421875 -0.00390625 C4.13253906 -0.00003906 5.19085938 0.00382812 6.28125 0.0078125 C7.86873047 0.00201172 7.86873047 0.00201172 9.48828125 -0.00390625 C10.50277344 -0.00261719 11.51726562 -0.00132812 12.5625 0 C13.49126953 0.00112793 14.42003906 0.00225586 15.37695312 0.00341797 C17.78125 0.1328125 17.78125 0.1328125 20.78125 1.1328125 C22.25805054 4.08641359 21.91674508 6.73270058 21.92651367 10.02929688 C21.92987228 10.73838699 21.9332309 11.44747711 21.93669128 12.17805481 C21.94620897 14.52757507 21.94814467 16.87702415 21.94921875 19.2265625 C21.95243031 20.85559112 21.9557943 22.48461945 21.95930481 24.11364746 C21.9652978 27.5300361 21.96714449 30.94639944 21.96655273 34.36279297 C21.966451 38.74796853 21.9801143 43.13298258 21.99732494 47.51811981 C22.00842288 50.88263703 22.01047264 54.2471149 22.00994301 57.61164856 C22.01112604 59.22883156 22.01556578 60.84601549 22.02327538 62.46318054 C22.03303279 64.72101287 22.03021451 66.97849054 22.02416992 69.23632812 C22.02559494 70.52269165 22.02701996 71.80905518 22.02848816 73.13439941 C21.78125 76.1328125 21.78125 76.1328125 19.78125 78.1328125 C17.10742187 78.39160156 17.10742187 78.39160156 13.75 78.3984375 C12.54730469 78.40101563 11.34460938 78.40359375 10.10546875 78.40625 C8.84347656 78.39851563 7.58148438 78.39078125 6.28125 78.3828125 C5.01925781 78.39054687 3.75726563 78.39828125 2.45703125 78.40625 C1.25433594 78.40367187 0.05164063 78.40109375 -1.1875 78.3984375 C-2.29544922 78.39618164 -3.40339844 78.39392578 -4.54492188 78.39160156 C-7.21875 78.1328125 -7.21875 78.1328125 -9.21875 76.1328125 C-9.46598816 73.13439941 -9.46598816 73.13439941 -9.46166992 69.23632812 C-9.46356827 68.52723801 -9.46546661 67.81814789 -9.46742249 67.08757019 C-9.47113453 64.73795602 -9.46042006 62.38864931 -9.44921875 60.0390625 C-9.44802706 58.41003455 -9.44757376 56.7810059 -9.4478302 55.15197754 C-9.44626459 51.73555203 -9.43796912 48.3192312 -9.42456055 44.90283203 C-9.40757059 40.51769439 -9.40374617 36.13267188 -9.40450573 31.74750519 C-9.40423414 28.38298437 -9.39875472 25.01848886 -9.39150429 21.65397644 C-9.3883161 20.03680106 -9.38634986 18.41962281 -9.38561058 16.80244446 C-9.3834486 14.54467865 -9.37470748 12.28703628 -9.36401367 10.02929688 C-9.36020187 8.74293335 -9.35639008 7.45656982 -9.35246277 6.13122559 C-9.21875 3.1328125 -9.21875 3.1328125 -8.21875 1.1328125 C-5.19982411 0.12650387 -3.15578824 0.0038325 0 0 Z M-0.21875 9.1328125 C-0.21875 28.9328125 -0.21875 48.7328125 -0.21875 69.1328125 C4.07125 69.1328125 8.36125 69.1328125 12.78125 69.1328125 C12.78125 49.3328125 12.78125 29.5328125 12.78125 9.1328125 C8.49125 9.1328125 4.20125 9.1328125 -0.21875 9.1328125 Z " fill="#000000" transform="translate(355.21875,268.8671875)"/>
<path d="M0 0 C1.20978516 0.00322266 2.41957031 0.00644531 3.66601562 0.00976562 C5.47489258 -0.0144043 5.47489258 -0.0144043 7.3203125 -0.0390625 C9.0518457 -0.0400293 9.0518457 -0.0400293 10.81835938 -0.04101562 C11.87917725 -0.04399658 12.93999512 -0.04697754 14.03295898 -0.05004883 C16.72851562 0.32226562 16.72851562 0.32226562 18.37371826 1.44856262 C20.35518018 4.18895114 20.10265742 6.31549252 20.10083008 9.67382812 C20.11017326 11.64101807 20.11017326 11.64101807 20.1197052 13.64794922 C20.11101714 15.08105855 20.10169915 16.51416417 20.09179688 17.94726562 C20.09127823 19.41552734 20.09179611 20.88378975 20.0933075 22.35205078 C20.09321779 25.42881643 20.08279136 28.50531998 20.06469727 31.58203125 C20.04200996 35.52657064 20.04146607 39.47072704 20.04821491 43.41531372 C20.05155585 46.44705613 20.04492248 49.47871117 20.03508568 52.51043701 C20.03123554 53.96490013 20.0300847 55.41937298 20.03167152 56.87384033 C20.03204222 58.9061501 20.01794476 60.93844701 20.00317383 62.97070312 C19.99856644 64.12747559 19.99395905 65.28424805 19.98921204 66.47607422 C19.72851562 69.32226562 19.72851562 69.32226562 17.72851562 72.32226562 C15.0546875 72.69458008 15.0546875 72.69458008 11.69726562 72.68554688 C10.49457031 72.68490234 9.291875 72.68425781 8.05273438 72.68359375 C6.15974609 72.65942383 6.15974609 72.65942383 4.22851562 72.63476562 C2.96652344 72.63798828 1.70453125 72.64121094 0.40429688 72.64453125 C-9.00468434 72.58906566 -9.00468434 72.58906566 -11.27148438 70.32226562 C-11.52545166 67.51367188 -11.52545166 67.51367188 -11.53027344 63.88476562 C-11.53377808 63.22444336 -11.53728271 62.56412109 -11.54089355 61.88378906 C-11.54971119 59.6965083 -11.5438618 57.5095498 -11.53710938 55.32226562 C-11.53845602 53.80533791 -11.54039655 52.28841061 -11.54290771 50.77148438 C-11.54585901 47.59045304 -11.54156121 44.40953393 -11.53222656 41.22851562 C-11.52083194 37.14598661 -11.5273914 33.06372054 -11.53937149 28.98120117 C-11.54658998 25.84828705 -11.54430223 22.71543552 -11.53911591 19.58251953 C-11.53777937 18.07698536 -11.53942725 16.57144556 -11.54407501 15.06591797 C-11.54914016 12.9637135 -11.54143065 10.86193804 -11.53027344 8.75976562 C-11.52868225 7.56222656 -11.52709106 6.3646875 -11.52545166 5.13085938 C-10.92644345 -1.49350056 -5.25822254 0.03233116 0 0 Z M-2.27148438 9.32226562 C-2.27148438 27.14226562 -2.27148438 44.96226562 -2.27148438 63.32226562 C2.01851563 63.32226562 6.30851562 63.32226562 10.72851562 63.32226562 C10.72851562 45.50226563 10.72851562 27.68226563 10.72851562 9.32226562 C6.43851562 9.32226562 2.14851563 9.32226562 -2.27148438 9.32226562 Z " fill="#000000" transform="translate(402.271484375,274.677734375)"/>
<path d="M0 0 C1.20269531 -0.00257813 2.40539062 -0.00515625 3.64453125 -0.0078125 C4.90652344 -0.00007813 6.16851562 0.00765625 7.46875 0.015625 C8.73074219 0.00789063 9.99273437 0.00015625 11.29296875 -0.0078125 C12.49566406 -0.00523437 13.69835937 -0.00265625 14.9375 0 C16.04544922 0.00225586 17.15339844 0.00451172 18.29492188 0.00683594 C20.96875 0.265625 20.96875 0.265625 22.96875 2.265625 C23.22271729 4.58068848 23.22271729 4.58068848 23.22753906 7.50976562 C23.23384338 8.60430054 23.24014771 9.69883545 23.24664307 10.82653809 C23.2425946 12.01299927 23.23854614 13.19946045 23.234375 14.421875 C23.23628845 15.63508423 23.2382019 16.84829346 23.24017334 18.0982666 C23.24153634 20.66723843 23.23783192 23.23621712 23.22949219 25.80517578 C23.2187946 29.74918004 23.22938394 33.69272875 23.2421875 37.63671875 C23.24086593 40.12760518 23.23830358 42.61849132 23.234375 45.109375 C23.23842346 46.29583618 23.24247192 47.48229736 23.24664307 48.70471191 C23.24033875 49.79924683 23.23403442 50.89378174 23.22753906 52.02148438 C23.22515228 53.47137756 23.22515228 53.47137756 23.22271729 54.95056152 C22.96875 57.265625 22.96875 57.265625 20.96875 59.265625 C18.29492187 59.52441406 18.29492187 59.52441406 14.9375 59.53125 C13.73480469 59.53382813 12.53210938 59.53640625 11.29296875 59.5390625 C10.03097656 59.53132813 8.76898438 59.52359375 7.46875 59.515625 C6.20675781 59.52335937 4.94476563 59.53109375 3.64453125 59.5390625 C2.44183594 59.53648437 1.23914063 59.53390625 0 59.53125 C-1.10794922 59.52899414 -2.21589844 59.52673828 -3.35742188 59.52441406 C-6.03125 59.265625 -6.03125 59.265625 -8.03125 57.265625 C-8.28521729 54.95056152 -8.28521729 54.95056152 -8.29003906 52.02148438 C-8.29634338 50.92694946 -8.30264771 49.83241455 -8.30914307 48.70471191 C-8.3050946 47.51825073 -8.30104614 46.33178955 -8.296875 45.109375 C-8.29878845 43.89616577 -8.3007019 42.68295654 -8.30267334 41.4329834 C-8.30403634 38.86401157 -8.30033192 36.29503288 -8.29199219 33.72607422 C-8.2812946 29.78206996 -8.29188394 25.83852125 -8.3046875 21.89453125 C-8.30336593 19.40364482 -8.30080358 16.91275868 -8.296875 14.421875 C-8.30294769 12.64218323 -8.30294769 12.64218323 -8.30914307 10.82653809 C-8.30283875 9.73200317 -8.29653442 8.63746826 -8.29003906 7.50976562 C-8.28844788 6.54317017 -8.28685669 5.57657471 -8.28521729 4.58068848 C-7.72332309 -0.54131271 -4.30054782 0.00875621 0 0 Z M0.96875 9.265625 C0.96875 22.795625 0.96875 36.325625 0.96875 50.265625 C5.25875 50.265625 9.54875 50.265625 13.96875 50.265625 C13.96875 36.735625 13.96875 23.205625 13.96875 9.265625 C9.67875 9.265625 5.38875 9.265625 0.96875 9.265625 Z " fill="#000000" transform="translate(309.03125,287.734375)"/>
<path d="M0 0 C1.37333496 -0.01062721 1.37333496 -0.01062721 2.77441406 -0.02146912 C4.28540428 -0.01775299 4.28540428 -0.01775299 5.82691956 -0.01396179 C6.88553192 -0.01907272 7.94414429 -0.02418365 9.03483582 -0.02944946 C12.54835093 -0.0433957 16.061671 -0.0423849 19.57521057 -0.04008484 C22.00897292 -0.043969 24.44273458 -0.04830308 26.87649536 -0.05307007 C31.98352758 -0.06054312 37.09049068 -0.06023314 42.19752502 -0.05497742 C48.75290683 -0.04918141 55.30800624 -0.06611196 61.86334133 -0.08932209 C66.89125227 -0.10403014 71.91909475 -0.10493512 76.94702339 -0.10181236 C79.36442181 -0.10232705 81.78182392 -0.10759224 84.19920158 -0.11762428 C87.57529603 -0.1299145 90.95083449 -0.12324136 94.32691956 -0.11161804 C95.33222214 -0.11926178 96.33752472 -0.12690552 97.37329102 -0.13478088 C98.29166748 -0.12776657 99.21004395 -0.12075226 100.15625 -0.11352539 C100.95469047 -0.11369313 101.75313093 -0.11386087 102.57576656 -0.1140337 C105.17292525 0.35707187 106.08975498 1.15290418 107.64161682 3.26069641 C107.45411682 5.88569641 107.45411682 5.88569641 106.64161682 8.26069641 C104.29083771 9.43608597 102.89707688 9.38891521 100.27650452 9.39440918 C98.90100182 9.40080666 98.90100182 9.40080666 97.49771118 9.40733337 C96.48881332 9.40688019 95.47991547 9.406427 94.44044495 9.40596008 C93.38022629 9.4093187 92.32000763 9.41267731 91.22766113 9.4161377 C87.70938458 9.4256672 84.19115549 9.42759171 80.67286682 9.42866516 C78.23670939 9.43187597 75.80055216 9.4352399 73.36439514 9.43875122 C68.25318454 9.44474723 63.14199085 9.4465906 58.03077698 9.44599915 C51.4663938 9.44589741 44.9021185 9.4595595 38.33776093 9.47677135 C33.30561317 9.48786313 28.27349174 9.48991924 23.24133301 9.48938942 C20.82031888 9.49057343 18.39930416 9.49501856 15.978302 9.50272179 C12.59971954 9.51246634 9.22137459 9.50966577 5.8427887 9.50361633 C4.32944191 9.51204559 4.32944191 9.51204559 2.78552246 9.52064514 C1.86852066 9.51645065 0.95151886 9.51225616 0.00672913 9.50793457 C-0.79263313 9.50847934 -1.59199539 9.50902411 -2.41558075 9.50958538 C-4.35838318 9.26069641 -4.35838318 9.26069641 -6.35838318 7.26069641 C-6.60838318 4.76069641 -6.60838318 4.76069641 -6.35838318 2.26069641 C-3.92654741 -0.17113936 -3.33035442 0.00856672 0 0 Z " fill="#000000" transform="translate(348.35838317871094,155.7393035888672)"/>
<path d="M0 0 C1.21538405 0.00138269 1.21538405 0.00138269 2.45532131 0.00279331 C3.38225292 0.00141865 4.30918453 0.00004398 5.26420498 -0.00137234 C6.80168392 0.00402058 6.80168392 0.00402058 8.37022305 0.00952244 C9.97978123 0.0093034 9.97978123 0.0093034 11.62185574 0.00907993 C15.18765656 0.00977959 18.75340589 0.01757445 22.31919765 0.02539158 C24.78399534 0.02725557 27.24879339 0.02867956 29.71359158 0.0296793 C36.21558045 0.03350596 42.71754716 0.0433375 49.21952724 0.05438328 C55.84844957 0.06513035 62.47737833 0.06917624 69.10630703 0.0742197 C82.12389464 0.08495964 95.14146685 0.10184686 108.1590414 0.12304783 C109.1490414 2.59804783 109.1490414 2.59804783 110.1590414 5.12304783 C108.79833889 7.09169102 108.79833889 7.09169102 106.1590414 9.12304783 C102.75865636 9.74326946 99.37846594 9.65872437 95.93028164 9.62475681 C94.37118572 9.63286129 94.37118572 9.63286129 92.78059292 9.64112949 C89.34265129 9.65364371 85.90554259 9.63710826 82.46763515 9.61914158 C80.08157208 9.61929649 77.69550876 9.62078418 75.30944729 9.62355137 C70.3084339 9.62493654 65.30770689 9.61235625 60.30674648 9.58960056 C53.88814749 9.56120058 47.47002395 9.56395603 41.05138969 9.57669067 C36.12468288 9.58363639 31.19808649 9.57587145 26.27139378 9.56343365 C23.90424491 9.55890947 21.53708423 9.55859074 19.16993427 9.56249905 C15.86584331 9.56540074 12.56241411 9.54895412 9.25840664 9.52710056 C8.27494762 9.53160221 7.29148861 9.53610386 6.27822781 9.54074192 C5.37956997 9.53083729 4.48091213 9.52093266 3.55502224 9.51072788 C2.7739281 9.50829799 1.99283396 9.50586809 1.1880703 9.50336456 C-1.37999884 9.0220113 -2.30287341 8.20815649 -3.8409586 6.12304783 C-3.27868202 0.21914382 -3.27868202 0.21914382 0 0 Z " fill="#000000" transform="translate(345.8409585952759,196.87695217132568)"/>
<path d="M0 0 C1.65708984 0.0009668 1.65708984 0.0009668 3.34765625 0.00195312 C5.07822266 0.02612305 5.07822266 0.02612305 6.84375 0.05078125 C7.99746094 0.04755859 9.15117187 0.04433594 10.33984375 0.04101562 C18.9431724 0.09622952 18.9431724 0.09622952 22.34375 2.36328125 C22.71606445 5.03710938 22.71606445 5.03710938 22.70703125 8.39453125 C22.70638672 9.59722656 22.70574219 10.79992187 22.70507812 12.0390625 C22.68896484 13.30105469 22.67285156 14.56304687 22.65625 15.86328125 C22.66108398 17.75626953 22.66108398 17.75626953 22.66601562 19.6875 C22.61055003 29.09648122 22.61055003 29.09648122 20.34375 31.36328125 C17.66992188 31.62207031 17.66992188 31.62207031 14.3125 31.62890625 C13.10980469 31.63148438 11.90710938 31.6340625 10.66796875 31.63671875 C9.40597656 31.62898438 8.14398438 31.62125 6.84375 31.61328125 C5.58175781 31.62101562 4.31976563 31.62875 3.01953125 31.63671875 C1.81683594 31.63414062 0.61414063 31.6315625 -0.625 31.62890625 C-1.73294922 31.62665039 -2.84089844 31.62439453 -3.98242188 31.62207031 C-6.65625 31.36328125 -6.65625 31.36328125 -8.65625 29.36328125 C-9.1158969 25.06874918 -8.98024779 20.74205307 -8.96875 16.42578125 C-8.98486328 15.21986328 -9.00097656 14.01394531 -9.01757812 12.77148438 C-9.01822266 11.61712891 -9.01886719 10.46277344 -9.01953125 9.2734375 C-9.02251221 8.21261963 -9.02549316 7.15180176 -9.02856445 6.05883789 C-8.65625 3.36328125 -8.65625 3.36328125 -7.48706055 1.51660156 C-4.92228016 -0.09908353 -3.01900623 -0.00888791 0 0 Z M0.34375 9.36328125 C0.34375 13.65328125 0.34375 17.94328125 0.34375 22.36328125 C4.63375 22.36328125 8.92375 22.36328125 13.34375 22.36328125 C13.34375 18.07328125 13.34375 13.78328125 13.34375 9.36328125 C9.05375 9.36328125 4.76375 9.36328125 0.34375 9.36328125 Z " fill="#000000" transform="translate(309.65625,225.63671875)"/>
<path d="M0 0 C1.7315332 0.0009668 1.7315332 0.0009668 3.49804688 0.00195312 C4.70396484 0.01806641 5.90988281 0.03417969 7.15234375 0.05078125 C8.96702148 0.04594727 8.96702148 0.04594727 10.81835938 0.04101562 C19.8229445 0.096382 19.8229445 0.096382 22.08984375 2.36328125 C22.34863281 5.03710938 22.34863281 5.03710938 22.35546875 8.39453125 C22.35933594 10.19857422 22.35933594 10.19857422 22.36328125 12.0390625 C22.35554688 13.30105469 22.3478125 14.56304687 22.33984375 15.86328125 C22.34757812 17.12527344 22.3553125 18.38726562 22.36328125 19.6875 C22.36070312 20.89019531 22.358125 22.09289062 22.35546875 23.33203125 C22.35321289 24.43998047 22.35095703 25.54792969 22.34863281 26.68945312 C22.08984375 29.36328125 22.08984375 29.36328125 20.08984375 31.36328125 C15.79531168 31.82292815 11.46861557 31.68727904 7.15234375 31.67578125 C5.3434668 31.69995117 5.3434668 31.69995117 3.49804688 31.72460938 C2.34369141 31.72525391 1.18933594 31.72589844 0 31.7265625 C-1.06081787 31.72954346 -2.12163574 31.73252441 -3.21459961 31.7355957 C-5.91015625 31.36328125 -5.91015625 31.36328125 -7.75463867 30.1940918 C-9.37068566 27.63361507 -9.29851427 25.7231957 -9.30859375 22.70703125 C-9.31246094 21.60230469 -9.31632812 20.49757812 -9.3203125 19.359375 C-9.30871094 18.20566406 -9.29710937 17.05195313 -9.28515625 15.86328125 C-9.29675781 14.70957031 -9.30835938 13.55585938 -9.3203125 12.3671875 C-9.31644531 11.26246094 -9.31257813 10.15773437 -9.30859375 9.01953125 C-9.30520996 8.00697266 -9.30182617 6.99441406 -9.29833984 5.95117188 C-8.91015625 3.36328125 -8.91015625 3.36328125 -7.75463867 1.5324707 C-5.12056393 -0.13722936 -3.10339028 -0.0087207 0 0 Z M0.08984375 9.36328125 C0.08984375 13.65328125 0.08984375 17.94328125 0.08984375 22.36328125 C4.37984375 22.36328125 8.66984375 22.36328125 13.08984375 22.36328125 C13.08984375 18.07328125 13.08984375 13.78328125 13.08984375 9.36328125 C8.79984375 9.36328125 4.50984375 9.36328125 0.08984375 9.36328125 Z " fill="#000000" transform="translate(309.91015625,144.63671875)"/>
<path d="M0 0 C1.20269531 -0.00257813 2.40539062 -0.00515625 3.64453125 -0.0078125 C4.90652344 -0.00007812 6.16851562 0.00765625 7.46875 0.015625 C8.73074219 0.00789062 9.99273437 0.00015625 11.29296875 -0.0078125 C12.49566406 -0.00523437 13.69835937 -0.00265625 14.9375 0 C16.04544922 0.00225586 17.15339844 0.00451172 18.29492188 0.00683594 C20.96875 0.265625 20.96875 0.265625 22.96875 2.265625 C23.4283969 6.56015707 23.29274779 10.88685318 23.28125 15.203125 C23.29736328 16.40904297 23.31347656 17.61496094 23.33007812 18.85742188 C23.33072266 20.01177734 23.33136719 21.16613281 23.33203125 22.35546875 C23.33501221 23.41628662 23.33799316 24.47710449 23.34106445 25.57006836 C22.96875 28.265625 22.96875 28.265625 21.78369141 30.11010742 C19.29595094 31.69397554 17.50564854 31.65374851 14.56640625 31.6640625 C13.51130859 31.66792969 12.45621094 31.67179687 11.36914062 31.67578125 C10.26763672 31.66417969 9.16613281 31.65257812 8.03125 31.640625 C6.93361328 31.65222656 5.83597656 31.66382813 4.70507812 31.67578125 C3.64869141 31.67191406 2.59230469 31.66804688 1.50390625 31.6640625 C0.05576538 31.65898682 0.05576538 31.65898682 -1.42163086 31.65380859 C-4.5493805 31.18855254 -5.89638942 30.60551644 -8.03125 28.265625 C-8.51708984 25.57006836 -8.51708984 25.57006836 -8.4921875 22.35546875 C-8.48832031 21.20111328 -8.48445313 20.04675781 -8.48046875 18.85742188 C-8.45597656 17.65150391 -8.43148438 16.44558594 -8.40625 15.203125 C-8.40496094 13.99333984 -8.40367187 12.78355469 -8.40234375 11.53710938 C-8.28643303 0.01687174 -8.28643303 0.01687174 0 0 Z M0.96875 9.265625 C0.96875 13.555625 0.96875 17.845625 0.96875 22.265625 C5.25875 22.265625 9.54875 22.265625 13.96875 22.265625 C13.96875 17.975625 13.96875 13.685625 13.96875 9.265625 C9.67875 9.265625 5.38875 9.265625 0.96875 9.265625 Z " fill="#000000" transform="translate(309.03125,185.734375)"/>
<path d="M0 0 C1.87720985 -0.01441132 1.87720985 -0.01441132 3.79234314 -0.02911377 C5.164376 -0.03396102 6.53641097 -0.03824003 7.90844727 -0.04199219 C9.31087751 -0.04774325 10.71330773 -0.05350099 12.11573792 -0.05926514 C15.05714281 -0.0697739 17.99852038 -0.07561758 20.93994141 -0.07910156 C24.7108 -0.08459044 28.48129825 -0.10862691 32.25204372 -0.13707352 C35.14908407 -0.15568644 38.04603731 -0.16090473 40.9431324 -0.16243744 C42.33342525 -0.16546686 43.72371646 -0.17350517 45.11395073 -0.18662262 C47.05766552 -0.2036553 49.00152865 -0.19996208 50.9453125 -0.1953125 C52.05180649 -0.19895813 53.15830048 -0.20260376 54.29832458 -0.20635986 C57.03735352 0.16113281 57.03735352 0.16113281 58.93373108 1.51934814 C60.03735352 3.16113281 60.03735352 3.16113281 59.78735352 5.78613281 C59.03735352 8.16113281 59.03735352 8.16113281 58.03735352 9.16113281 C56.02329223 9.26573999 54.00553441 9.29969109 51.98876953 9.30639648 C50.69395157 9.31277634 49.39913361 9.31915619 48.06507874 9.32572937 C46.64047279 9.32725792 45.21586635 9.32837195 43.79125977 9.32910156 C42.34016384 9.33231244 40.88906825 9.33567637 39.43797302 9.33918762 C36.39223479 9.34518527 33.34652497 9.34702688 30.30078125 9.34643555 C26.39199495 9.3463339 22.4833902 9.3599859 18.57464695 9.37720776 C15.57642271 9.38830952 12.57824261 9.39035532 9.57999992 9.38982582 C8.1386547 9.39100871 6.69730844 9.39544767 5.25598335 9.40315819 C3.24245656 9.41292067 1.22887684 9.40882552 -0.78466797 9.40405273 C-2.50555885 9.40619026 -2.50555885 9.40619026 -4.26121521 9.40837097 C-6.96264648 9.16113281 -6.96264648 9.16113281 -8.96264648 7.16113281 C-8.71264648 4.09863281 -8.71264648 4.09863281 -7.96264648 1.16113281 C-5.23393696 -0.20322195 -3.05458812 0.01886295 0 0 Z " fill="#000000" transform="translate(350.962646484375,236.8388671875)"/>
</svg>
