<?xml version="1.0" encoding="utf-8"?>
<svg xmlns="http://www.w3.org/2000/svg" version="1.1" width="512" height="512" x="0" y="0" viewBox="0 0 682.667 682.667" style="enable-background:new 0 0 512 512">
  <g>
    <defs>
      <clipPath id="a">
        <path d="M0 512h512V0H0Z" fill="#ffffff" opacity="1" data-original="#000000"/>
      </clipPath>
    </defs>
    <g clip-path="url(#a)" transform="matrix(1.33333 0 0 -1.33333 0 682.667)">
      <path d="M0 0h26.54c19.366 0 35.95-13.873 39.371-32.933L116-312" style="stroke-width: 40; stroke-linecap: round; stroke-linejoin: round; stroke-miterlimit: 10; stroke-dasharray: none; stroke-opacity: 1; fill: rgba(255, 255, 255, 0);" transform="translate(20 492)" stroke="#000000" stroke-width="40" stroke-linecap="round" stroke-linejoin="round" stroke-miterlimit="10" stroke-dasharray="none" stroke-opacity="" data-original="#000000" opacity="1" class="highlight"/>
      <path d="M0 0h-320c-22.091 0-40 17.909-40 40s17.909 40 40 40h276c18.734 0 34.461 12.879 38.808 30.267l40 152A40.083 40.083 0 0 1 36 272c0 22.091-17.908 40-40 40h-358" style="stroke-width: 40; stroke-linecap: round; stroke-linejoin: round; stroke-miterlimit: 10; stroke-dasharray: none; stroke-opacity: 1; fill: rgba(255, 255, 255, 0);" transform="translate(456 100)" stroke="#000000" stroke-width="40" stroke-linecap="round" stroke-linejoin="round" stroke-miterlimit="10" stroke-dasharray="none" stroke-opacity="" data-original="#000000" opacity="1" class="highlight"/>
      <path d="M0 0c0-22.091-17.909-40-40-40S-80-22.091-80 0s17.909 40 40 40S0 22.091 0 0Z" style="stroke-width: 40; stroke-linecap: round; stroke-linejoin: round; stroke-miterlimit: 10; stroke-dasharray: none; stroke-opacity: 1; fill: rgba(255, 255, 255, 0);" transform="translate(216 60)" stroke="#000000" stroke-width="40" stroke-linecap="round" stroke-linejoin="round" stroke-miterlimit="10" stroke-dasharray="none" stroke-opacity="" data-original="#000000" opacity="1" class=""/>
      <path d="M0 0c0-22.091-17.908-40-40-40S-80-22.091-80 0s17.908 40 40 40S0 22.091 0 0Z" style="stroke-width: 40; stroke-linecap: round; stroke-linejoin: round; stroke-miterlimit: 10; stroke-dasharray: none; stroke-opacity: 1; fill: rgba(255, 255, 255, 0);" transform="translate(456 60)" stroke="#000000" stroke-width="40" stroke-linecap="round" stroke-linejoin="round" stroke-miterlimit="10" stroke-dasharray="none" stroke-opacity="" data-original="#000000" opacity="1" class=""/>
      <path d="M0 0h80" style="stroke-width: 40; stroke-linecap: round; stroke-linejoin: round; stroke-miterlimit: 10; stroke-dasharray: none; stroke-opacity: 1; fill: rgba(255, 255, 255, 0);" transform="translate(256 296)" stroke="#000000" stroke-width="40" stroke-linecap="round" stroke-linejoin="round" stroke-miterlimit="10" stroke-dasharray="none" stroke-opacity="" data-original="#000000" opacity="1" class=""/>
    </g>
  </g>
</svg>