<?xml version="1.0" encoding="utf-8"?>
<svg version="1.0" xmlns="http://www.w3.org/2000/svg" width="512.000000pt" height="512.000000pt" viewBox="0 0 512.000000 512.000000" preserveAspectRatio="xMidYMid meet">
  <g transform="translate(0.000000,512.000000) scale(0.100000,-0.100000)" fill="#000000" stroke="none">
    <path d="M1804 5066 c-115 -27 -258 -112 -318 -191 l-27 -35 -156 0 c-87 0 -172 -5 -193 -11 -66 -20 -132 -78 -165 -146 l-30 -61 -300 -4 c-330 -4 -342 -6 -432 -70 -58 -41 -119 -133 -133 -201 -7 -36 -9 -658 -8 -2047 l3 -1995 26 -56 c37 -79 90 -133 167 -171 l67 -33 1681 0 1681 0 49 30 c30 19 60 49 79 79 l30 49 3 216 4 216 61 24 c34 13 92 41 129 62 36 22 70 39 75 39 16 0 326 -318 319 -328 -3 -5 -3 -25 1 -43 5 -26 40 -68 146 -176 215 -218 225 -220 394 -51 167 166 166 176 -21 366 -155 158 -174 173 -227 176 -37 2 -50 12 -194 156 -85 85 -155 159 -155 163 0 5 17 39 39 75 54 94 90 191 113 302 27 127 21 346 -12 465 -81 298 -314 564 -592 676 l-77 31 -3 887 -3 886 -28 61 c-36 77 -104 145 -182 181 l-60 28 -302 3 -302 4 -24 51 c-30 65 -77 113 -142 143 -46 22 -63 24 -209 24 l-159 0 -73 70 c-115 109 -230 159 -384 166 -60 2 -117 -1 -156 -10z m228 -117 c96 -20 173 -65 250 -148 l71 -76 191 -5 c182 -5 192 -6 223 -29 59 -44 68 -77 68 -251 l0 -155 -902 -3 -903 -2 0 152 c0 174 12 217 71 259 32 23 43 24 228 29 l193 5 26 35 c116 156 299 228 484 189z m-1122 -559 l0 -110 -248 0 c-199 0 -252 -3 -268 -14 -19 -14 -19 -45 -19 -1935 0 -1830 1 -1921 18 -1938 17 -17 92 -18 1543 -18 1499 0 1526 0 1540 19 9 14 14 47 14 103 0 58 4 85 13 87 6 3 56 7 110 10 l97 5 0 -170 c0 -124 -4 -179 -14 -204 -30 -70 103 -65 -1713 -65 l-1638 0 -50 24 c-59 27 -96 67 -119 128 -15 39 -16 218 -14 2033 l3 1990 28 47 c15 26 41 57 58 69 61 43 99 48 387 48 l272 1 0 -110z m2660 86 c49 -26 88 -64 113 -111 22 -40 22 -40 25 -904 2 -778 1 -863 -13 -857 -9 3 -58 9 -110 12 l-95 7 0 810 c0 740 -1 812 -17 829 -15 16 -37 18 -265 18 l-248 0 0 111 0 110 288 -3 c257 -3 291 -5 322 -22z m-200 -1091 l0 -775 -27 -5 c-324 -64 -595 -267 -734 -550 -75 -154 -102 -268 -103 -445 -1 -162 14 -248 66 -380 119 -301 392 -540 700 -612 l98 -23 0 -53 0 -52 -1437 2 -1438 3 -3 1833 -2 1832 1440 0 1440 0 0 -775z m374 -915 c167 -45 303 -127 424 -255 166 -176 242 -371 242 -618 0 -240 -90 -457 -258 -625 -127 -128 -284 -211 -461 -247 -113 -23 -315 -16 -416 14 -320 96 -556 345 -631 667 -27 112 -24 310 5 419 90 339 366 594 714 661 99 19 279 11 381 -16z m686 -1695 l145 -145 -43 -42 -42 -43 -147 147 -147 148 39 40 c21 22 42 40 45 40 3 0 70 -65 150 -145z m407 -317 l123 -123 -87 -87 -88 -88 -122 122 c-68 68 -123 127 -123 133 0 13 152 165 165 165 5 0 65 -55 132 -122z"/>
    <path d="M1355 3865 c-54 -19 -92 -64 -100 -117 -3 -24 -5 -289 -3 -590 3 -534 3 -547 24 -574 11 -15 33 -37 48 -48 27 -21 40 -21 594 -24 l567 -3 45 23 c26 14 53 37 65 58 19 34 20 51 20 605 0 555 -1 571 -20 605 -12 19 -36 43 -55 55 -34 19 -52 20 -590 22 -460 2 -562 0 -595 -12z m345 -330 c0 -212 1 -226 20 -245 29 -29 52 -25 133 21 40 23 77 42 82 42 6 0 42 -19 81 -42 39 -22 80 -41 90 -41 48 1 49 5 54 252 l5 233 140 3 c77 1 150 0 163 -3 l22 -5 -2 -558 -3 -557 -544 -3 c-393 -1 -548 1 -557 9 -12 9 -14 108 -14 555 0 507 1 544 18 553 9 6 83 11 165 11 l147 0 0 -225z m340 64 c0 -88 -3 -159 -7 -157 -5 2 -29 14 -54 27 l-45 23 -52 -26 c-28 -14 -54 -26 -57 -26 -7 0 -6 305 2 313 3 4 53 7 110 7 l103 0 0 -161z"/>
    <path d="M710 2217 l-25 -13 -3 -266 c-2 -232 0 -268 14 -282 13 -14 52 -16 279 -16 261 0 264 0 279 22 14 19 16 62 16 271 l0 248 -25 24 -24 25 -243 0 c-176 0 -250 -4 -268 -13z m438 -284 l2 -173 -175 0 -175 0 0 175 0 175 173 -2 172 -3 3 -172z"/>
    <path d="M1422 2130 c-35 -15 -48 -54 -28 -85 l16 -25 440 0 439 0 15 22 c22 30 20 51 -5 74 -20 18 -44 19 -438 21 -237 1 -426 -2 -439 -7z"/>
    <path d="M1406 1829 c-30 -23 -33 -45 -10 -77 l15 -22 439 0 439 0 15 22 c23 32 20 54 -10 77 -26 20 -37 21 -444 21 -407 0 -418 -1 -444 -21z"/>
    <path d="M697 1412 c-15 -16 -17 -51 -17 -280 0 -258 0 -261 22 -276 19 -14 63 -16 274 -16 l253 0 21 27 c20 26 21 35 18 281 -3 238 -4 255 -22 268 -16 11 -71 14 -276 14 -236 0 -258 -1 -273 -18z m453 -277 l0 -175 -175 0 -175 0 0 175 0 175 175 0 175 0 0 -175z"/>
    <path d="M1400 1320 c-11 -11 -20 -29 -20 -40 0 -11 9 -29 20 -40 19 -19 33 -20 450 -20 417 0 431 1 450 20 11 11 20 29 20 40 0 11 -9 29 -20 40 -19 19 -33 20 -450 20 -417 0 -431 -1 -450 -20z"/>
    <path d="M1396 1028 c-21 -30 -20 -54 4 -78 19 -19 33 -20 450 -20 417 0 431 1 450 20 24 24 25 48 4 78 l-15 22 -439 0 -439 0 -15 -22z"/>
    <path d="M3356 2353 c-406 -86 -670 -487 -592 -897 30 -156 94 -274 216 -396 148 -149 323 -221 535 -221 596 0 964 641 663 1156 -49 83 -180 216 -261 264 -169 100 -375 134 -561 94z m299 -118 c151 -32 315 -143 401 -272 170 -257 136 -599 -82 -817 -312 -311 -841 -225 -1035 169 -240 486 184 1031 716 920z"/>
  </g>
  <path style="stroke: rgb(0, 0, 0); stroke-linecap: round; stroke-linejoin: round; fill: none; stroke-width: 7px;" d="M 369.761 312.974 L 323.062 370.107 L 318.077 392.589 L 336.967 385.976 L 387.077 327.521 C 398.423 314.241 381.107 299.694 369.761 312.974 Z"/>
  <path style="fill: rgb(216, 216, 216); stroke: rgb(0, 0, 0); stroke-width: 7px;" d="M 369.77 315.247 L 384.621 327.261"/>
</svg>