<?xml version="1.0" encoding="utf-8"?>
<svg fill="#000000" height="800px" width="800px" version="1.1" id="Capa_1" xmlns="http://www.w3.org/2000/svg" viewBox="0 0 380.5 385.8">
  <g transform="matrix(-1.00081, 0, 0, 1.001195, 362.250524, 22.355198)" style="transform-origin: -0.367307px 169.455px;">
    <g>
      <path d="M 50.268 16.15 L 143.08 16.15 C 161.595 16.15 176.674 31.229 176.674 49.744 L 176.674 142.556 C 176.674 161.071 161.595 176.15 143.08 176.15 L 50.268 176.15 C 31.753 176.15 16.674 161.071 16.674 142.556 L 16.674 49.822 C 16.674 31.229 31.753 16.15 50.268 16.15 Z M 35.814 142.556 C 35.814 150.525 42.299 157.01 50.268 157.01 L 143.08 157.01 C 151.049 157.01 157.534 150.525 157.534 142.556 L 157.534 49.822 C 157.534 41.853 151.049 35.369 143.08 35.369 L 50.268 35.369 C 42.299 35.369 35.814 41.853 35.814 49.822 L 35.814 142.556 Z" style="stroke-miterlimit: 9.43; stroke-linejoin: round; stroke-linecap: square; stroke-dashoffset: -20px; stroke-width: 8px; stroke: rgb(0, 0, 0); transform-origin: 96.674px 96.15px;" transform="matrix(-1, 0, 0, -1, -0.000017, -0.000015)"/>
      <path d="M 325.58 84.266 C 325.58 68.106 312.422 54.937 296.174 54.937 L 229.986 54.937 C 213.838 54.937 200.58 68.106 200.58 84.266 L 200.58 150.507 C 200.58 166.669 213.738 179.937 229.986 179.937 L 296.174 179.937 C 312.322 179.937 325.58 166.768 325.58 150.507 L 325.58 84.266 Z M 301.158 150.408 C 301.158 153.102 298.965 155.396 296.174 155.396 L 229.986 155.396 C 227.295 155.396 225.002 153.202 225.002 150.408 L 225.002 84.167 C 225.002 81.473 227.195 79.278 229.986 79.278 L 296.174 79.278 C 298.865 79.278 301.158 81.473 301.158 84.167 L 301.158 150.408 Z"/>
      <path d="M 325.58 229.267 C 325.58 213.105 312.422 199.937 296.173 199.937 L 229.987 199.937 C 213.838 199.937 200.58 213.105 200.58 229.267 L 200.58 295.508 C 200.58 311.669 213.738 324.937 229.987 324.937 L 296.173 324.937 C 312.322 324.937 325.58 311.769 325.58 295.508 L 325.58 229.267 Z M 301.158 295.408 C 301.158 298.101 298.966 300.396 296.173 300.396 L 229.987 300.396 C 227.295 300.396 225.002 298.201 225.002 295.408 L 225.002 229.167 C 225.002 226.473 227.194 224.279 229.987 224.279 L 296.173 224.279 C 298.865 224.279 301.158 226.473 301.158 229.167 L 301.158 295.408 Z"/>
      <path d="M 84.986 199.937 C 68.838 199.937 55.58 213.105 55.58 229.267 L 55.58 295.508 C 55.58 311.669 68.738 324.937 84.986 324.937 L 151.174 324.937 C 167.322 324.937 180.58 311.769 180.58 295.508 L 180.58 229.267 C 180.58 213.105 167.422 199.937 151.174 199.937 L 84.986 199.937 Z M 156.058 229.366 L 156.058 295.607 C 156.058 298.301 153.865 300.595 151.074 300.595 L 84.886 300.595 C 82.195 300.595 79.902 298.401 79.902 295.607 L 79.902 229.366 C 79.902 226.673 82.095 224.478 84.886 224.478 L 151.074 224.478 C 153.865 224.378 156.058 226.573 156.058 229.366 Z"/>
    </g>
  </g>
</svg>