<?xml version="1.0" standalone="no"?>
<!DOCTYPE svg PUBLIC "-//W3C//DTD SVG 20010904//EN"
 "http://www.w3.org/TR/2001/REC-SVG-20010904/DTD/svg10.dtd">
<svg version="1.0" xmlns="http://www.w3.org/2000/svg"
 width="512.000000pt" height="512.000000pt" viewBox="0 0 512.000000 512.000000"
 preserveAspectRatio="xMidYMid meet">

<g transform="translate(0.000000,512.000000) scale(0.100000,-0.100000)"
fill="#000000" stroke="none">
<path d="M2445 4764 c-249 -40 -449 -183 -556 -396 -63 -124 -82 -210 -82
-363 -1 -121 1 -137 31 -222 88 -258 288 -443 547 -508 92 -23 256 -23 350 0
39 9 113 37 165 63 82 39 108 59 190 141 106 106 159 193 201 331 30 95 32
276 6 384 -23 90 -84 219 -138 292 -87 115 -245 219 -394 259 -60 16 -263 28
-320 19z m314 -184 c278 -98 445 -392 387 -680 -26 -127 -75 -221 -160 -305
-82 -82 -162 -127 -272 -155 -146 -38 -313 -18 -447 52 -92 48 -196 156 -240
248 -84 176 -87 354 -11 519 78 170 213 285 394 336 81 22 265 15 349 -15z"/>
<path d="M2505 4395 c-24 -23 -25 -29 -25 -165 l0 -140 -139 0 c-121 0 -142
-2 -162 -19 -31 -25 -32 -83 -1 -114 21 -20 33 -22 162 -25 l140 -4 0 -132 c0
-120 2 -136 21 -160 29 -37 89 -37 118 0 19 24 21 40 21 160 l0 132 141 4
c140 3 141 3 165 31 29 34 31 66 3 101 -20 26 -21 26 -165 26 l-144 0 0 140
c0 136 -1 142 -25 165 -15 16 -36 25 -55 25 -19 0 -40 -9 -55 -25z"/>
<path d="M1174 3716 l-389 -194 -233 -234 c-159 -160 -232 -241 -232 -256 0
-53 18 -66 226 -170 l204 -102 0 -743 c0 -662 2 -745 16 -765 18 -26 1761
-902 1794 -902 33 0 1776 876 1794 902 14 20 16 103 16 763 l0 740 203 102
c209 105 227 119 227 175 0 15 -73 96 -232 256 l-233 234 -389 194 c-401 201
-413 206 -454 171 -25 -20 -34 -58 -21 -90 10 -24 56 -50 321 -183 169 -85
308 -156 308 -159 0 -3 -346 -178 -770 -390 l-770 -385 -770 385 c-424 212
-770 387 -770 390 0 3 139 74 309 159 280 140 310 158 319 186 12 33 4 68 -20
87 -41 35 -53 30 -454 -171z m468 -757 l781 -391 -156 -156 -157 -157 -787
393 -786 394 154 154 c84 85 157 154 161 154 5 0 360 -176 790 -391z m2787
237 l154 -154 -786 -394 -787 -393 -157 157 -156 156 779 391 c428 214 784
390 789 390 6 1 80 -68 164 -153z m-2912 -821 c386 -195 596 -295 616 -295 26
0 54 23 189 157 l158 157 0 -917 0 -917 -785 392 -785 393 0 662 c0 477 3 663
11 663 6 0 274 -133 596 -295z m2693 -368 l0 -662 -785 -393 -785 -392 0 917
0 917 158 -157 c137 -136 163 -157 190 -157 21 0 222 95 619 294 323 162 591
295 596 295 4 1 7 -297 7 -662z"/>
</g>
</svg>
