<?xml version="1.0" standalone="no"?>
<!DOCTYPE svg PUBLIC "-//W3C//DTD SVG 20010904//EN"
 "http://www.w3.org/TR/2001/REC-SVG-20010904/DTD/svg10.dtd">
<svg version="1.0" xmlns="http://www.w3.org/2000/svg"
 width="512.000000pt" height="512.000000pt" viewBox="0 0 512.000000 512.000000"
 preserveAspectRatio="xMidYMid meet">

<g transform="translate(0.000000,512.000000) scale(0.100000,-0.100000)"
fill="#000000" stroke="none">
<path d="M1170 4425 c-575 -332 -1053 -614 -1062 -626 -17 -20 -18 -94 -18
-1240 l0 -1218 22 -24 c27 -29 2100 -1227 2123 -1227 21 0 50 15 240 125 305
177 730 422 751 433 21 11 30 -2 175 -254 84 -146 164 -274 178 -286 18 -13
35 -18 56 -15 16 3 122 59 235 125 113 65 412 239 665 386 253 147 468 276
478 287 9 12 17 33 17 48 0 16 -121 236 -320 580 l-320 554 -2 860 -3 860 -27
20 c-23 17 -1083 632 -1877 1088 -123 71 -234 129 -245 128 -12 0 -491 -272
-1066 -604z m1356 289 c159 -92 295 -172 302 -179 13 -12 -234 -157 -1741
-1025 l-177 -102 -300 173 c-165 96 -300 176 -300 179 0 3 138 85 308 183 169
98 602 348 962 557 360 208 656 379 656 379 1 1 132 -74 290 -165z m684 -396
c167 -96 208 -124 198 -133 -20 -18 -1908 -1105 -1919 -1105 -6 0 -106 56
-224 123 l-214 124 962 556 c529 306 968 556 974 556 7 1 107 -54 223 -121z
m665 -383 c162 -93 295 -172 295 -175 0 -8 -763 -445 -776 -445 -6 0 -31 29
-56 65 -106 156 -258 174 -378 44 -73 -80 -126 -213 -166 -423 l-9 -45 -273
-158 -273 -158 -152 89 c-84 48 -221 127 -305 176 -84 48 -152 89 -150 90 3 2
1029 594 1658 957 151 87 278 157 282 156 4 -2 140 -79 303 -173z m-3157 -577
l122 -70 0 -492 c0 -378 3 -496 13 -508 6 -9 149 -96 317 -193 242 -139 310
-174 330 -170 56 14 55 -2 60 489 l5 454 300 -173 300 -173 3 -1121 2 -1120
-197 114 c-109 63 -544 314 -968 558 l-770 445 -3 1121 -2 1120 182 -106 c101
-58 238 -137 306 -175z m3532 -378 c0 -357 -2 -650 -4 -650 -2 0 -61 99 -131
220 -70 121 -137 226 -149 233 -15 8 -87 12 -251 12 l-230 0 -6 100 c-4 55
-14 140 -24 190 -10 49 -14 91 -9 92 5 2 182 104 394 227 212 124 391 225 398
225 9 1 12 -135 12 -649z m-1066 369 c34 -26 81 -108 70 -119 -28 -26 -304
-177 -304 -166 0 23 41 149 62 189 10 21 35 56 55 77 41 46 75 52 117 19z
m-1979 -272 l210 -122 3 -419 c1 -268 -1 -417 -8 -414 -5 1 -104 57 -219 123
l-210 120 -1 418 c0 229 3 417 8 416 4 0 102 -55 217 -122z m2109 -4 c12 -42
26 -153 26 -215 l0 -68 -163 0 c-182 0 -193 -3 -226 -68 -25 -49 -33 -30 -29
74 l3 79 185 107 c102 59 188 108 192 108 4 0 9 -8 12 -17z m-513 -514 l11
-86 -142 -254 c-100 -178 -143 -263 -143 -284 1 -20 106 -211 324 -588 272
-471 320 -560 308 -571 -15 -14 -808 -472 -834 -482 -13 -5 -15 127 -13 1111
l3 1117 230 134 230 133 7 -72 c4 -40 12 -111 19 -158z m1580 -749 c268 -465
485 -848 481 -852 -11 -10 -1215 -708 -1218 -705 -1 1 -212 367 -469 812 -257
446 -475 824 -485 840 l-19 30 199 355 199 355 134 3 134 3 -8 -48 c-4 -27 -8
-56 -8 -65 -1 -14 -10 -18 -38 -18 -49 0 -130 -39 -170 -81 -97 -103 -86 -277
24 -368 131 -108 332 -56 399 104 34 81 8 204 -57 271 -30 31 -30 32 -20 90 6
33 12 70 13 84 l3 25 150 6 c83 3 176 5 209 5 l59 -1 488 -845z m-1127 528
c-23 -45 -56 -88 -67 -88 -11 0 2 60 19 85 14 19 56 46 62 40 2 -2 -4 -18 -14
-37z m156 -63 c0 -52 -26 -94 -67 -111 -19 -9 -37 -14 -39 -12 -2 2 12 25 30
51 19 26 39 61 46 77 17 40 30 38 30 -5z"/>
</g>
</svg>
