<?xml version="1.0" standalone="no"?>
<!DOCTYPE svg PUBLIC "-//W3C//DTD SVG 20010904//EN"
 "http://www.w3.org/TR/2001/REC-SVG-20010904/DTD/svg10.dtd">
<svg version="1.0" xmlns="http://www.w3.org/2000/svg"
 width="512.000000pt" height="512.000000pt" viewBox="0 0 512.000000 512.000000"
 preserveAspectRatio="xMidYMid meet">

<g transform="translate(0.000000,512.000000) scale(0.100000,-0.100000)"
fill="#000000" stroke="none">
<path d="M190 5111 c-71 -23 -131 -74 -166 -141 -18 -34 -19 -104 -19 -2070
l0 -2035 22 -41 c41 -78 147 -144 228 -144 60 0 131 33 180 83 66 68 75 101
75 281 l0 146 866 -2 866 -3 23 -90 c69 -270 198 -490 407 -691 202 -194 432
-316 711 -376 147 -31 427 -31 574 0 586 126 1022 570 1139 1158 25 122 25
404 1 524 -40 201 -133 421 -242 575 -125 176 -337 360 -523 454 l-62 31 -2
1078 c-3 1192 2 1106 -68 1186 -118 133 -327 106 -415 -54 l-30 -55 -3 -627
-3 -628 -87 0 -87 0 3 487 c2 365 0 499 -10 533 -16 59 -96 141 -154 158 -30
9 -174 12 -521 12 l-479 0 -55 -27 c-61 -32 -113 -93 -129 -153 -7 -26 -10
-205 -8 -525 l3 -485 -97 0 -97 0 10 32 c13 45 12 923 -1 970 -18 65 -70 130
-129 160 l-53 28 -489 0 c-529 0 -520 1 -592 -54 -19 -14 -47 -50 -63 -78
l-29 -53 -3 -468 c-2 -279 1 -481 7 -502 l9 -35 -94 0 -93 0 -3 638 c-3 587
-4 640 -21 669 -25 46 -77 96 -123 118 -43 21 -135 29 -174 16z m103 -173 c12
-6 27 -18 34 -27 10 -12 12 -458 13 -2008 l0 -1992 -24 -27 c-33 -39 -89 -39
-122 0 l-24 27 0 1990 0 1991 29 29 c31 31 59 36 94 17z m3774 -12 l28 -24 3
-1031 c1 -567 -1 -1031 -5 -1031 -5 1 -42 9 -83 19 l-75 18 -3 1007 c-1 701 1
1013 9 1027 22 43 85 50 126 15z m-3045 -473 c3 -219 5 -241 24 -273 53 -91
152 -105 254 -37 30 20 59 37 65 37 6 0 35 -17 65 -37 113 -76 231 -47 269 66
7 21 11 117 11 257 l0 224 58 0 c63 0 97 -20 107 -63 3 -12 4 -222 3 -465 l-3
-444 -28 -24 -28 -24 -454 0 -454 0 -28 24 -28 24 0 460 0 460 24 26 c21 22
33 26 82 26 l58 0 3 -237z m518 31 c0 -161 -3 -204 -12 -198 -7 5 -40 25 -72
46 -78 50 -104 49 -188 -7 -37 -25 -70 -45 -73 -45 -3 0 -5 92 -5 205 l0 205
175 0 175 0 0 -206z m1020 -27 c0 -224 1 -236 23 -277 28 -52 75 -80 138 -80
37 0 58 8 108 40 34 22 66 40 71 40 5 0 37 -18 71 -40 52 -34 70 -40 114 -40
62 0 109 27 136 80 17 31 19 60 19 272 l0 238 60 0 c51 0 65 -4 85 -25 l25
-24 0 -461 0 -461 -25 -24 -24 -25 -451 0 c-462 0 -478 1 -507 39 -9 12 -12
130 -13 474 l0 458 25 24 c20 21 34 25 85 25 l60 0 0 -233z m510 28 l0 -205
-67 45 c-86 57 -114 58 -191 7 -31 -21 -63 -42 -69 -46 -10 -6 -13 37 -13 198
l0 206 170 0 170 0 0 -205z m680 -1070 l0 -85 -1620 0 -1620 0 0 85 0 85 1620
0 1620 0 0 -85z m0 -384 l0 -128 -137 -6 c-228 -10 -413 -59 -611 -162 -368
-191 -634 -527 -737 -930 l-23 -90 -105 -3 -106 -3 10 36 c6 21 9 220 7 502
-3 458 -3 469 -25 508 -28 53 -78 99 -133 124 -43 20 -64 21 -525 21 l-480 0
-50 -24 c-27 -12 -67 -41 -87 -64 -66 -73 -68 -90 -68 -591 0 -246 4 -461 9
-479 l10 -32 -95 0 -94 0 0 725 0 725 1620 0 1620 0 0 -129z m-2730 -518 c0
-120 5 -235 9 -257 12 -49 64 -103 113 -117 50 -13 98 0 167 47 48 33 57 35
75 24 111 -70 119 -74 164 -74 57 0 99 23 132 72 25 35 25 39 28 279 l3 243
54 0 c43 0 60 -5 82 -24 l28 -24 3 -455 3 -455 -27 -31 -26 -31 -462 0 -463 0
-24 26 -24 26 0 460 0 460 28 24 c22 19 39 24 83 24 l54 0 0 -217z m520 12 c0
-113 -2 -205 -5 -205 -3 0 -36 20 -73 45 -42 29 -78 45 -97 45 -19 0 -55 -16
-97 -45 -37 -25 -70 -45 -73 -45 -3 0 -5 92 -5 205 l0 205 175 0 175 0 0 -205z
m2400 176 c286 -66 527 -212 715 -436 133 -158 225 -352 272 -575 24 -117 24
-363 0 -480 -156 -737 -872 -1186 -1587 -995 -227 61 -413 170 -583 342 -173
176 -289 392 -343 643 -26 117 -26 381 -1 497 84 394 326 713 673 890 140 71
269 112 439 137 72 11 332 -4 415 -23z m-1720 -1246 l0 -85 -855 0 -855 0 0
78 c0 43 3 82 7 85 3 4 388 7 855 7 l848 0 0 -85z"/>
<path d="M3535 2379 c-206 -29 -404 -134 -550 -291 -145 -154 -174 -251 -85
-288 47 -19 80 0 134 80 328 480 1048 437 1315 -79 37 -71 71 -167 71 -198 0
-12 -4 -11 -22 1 -56 39 -128 -1 -128 -70 0 -33 10 -47 96 -135 99 -101 137
-125 176 -115 13 3 70 53 128 110 94 95 104 109 104 142 0 74 -84 108 -142 59
l-30 -25 -17 77 c-39 180 -122 331 -255 464 -211 212 -502 310 -795 268z"/>
<path d="M2698 1543 c-142 -136 -163 -180 -109 -234 36 -35 67 -37 114 -5 l36
25 11 -57 c36 -180 137 -370 262 -488 206 -197 491 -296 754 -264 126 16 196
35 303 86 159 75 285 182 379 324 62 92 53 161 -22 176 -47 8 -69 -6 -118 -79
-109 -160 -262 -269 -447 -319 -105 -28 -276 -28 -384 1 -151 40 -305 139
-399 255 -56 70 -119 188 -142 265 -22 76 -21 86 6 67 32 -23 62 -20 97 10 24
20 31 34 31 62 0 32 -11 47 -108 144 -99 99 -111 108 -145 108 -33 0 -47 -9
-119 -77z"/>
</g>
</svg>
