<?xml version="1.0" standalone="no"?>
<!DOCTYPE svg PUBLIC "-//W3C//DTD SVG 20010904//EN"
 "http://www.w3.org/TR/2001/REC-SVG-20010904/DTD/svg10.dtd">
<svg version="1.0" xmlns="http://www.w3.org/2000/svg"
 width="512.000000pt" height="512.000000pt" viewBox="0 0 512.000000 512.000000"
 preserveAspectRatio="xMidYMid meet">

<g transform="translate(0.000000,512.000000) scale(0.100000,-0.100000)"
fill="#000000" stroke="none">
<path d="M105 5106 c-37 -17 -80 -62 -94 -99 -15 -40 -15 -4854 0 -4894 14
-38 57 -83 96 -99 21 -9 73 -14 151 -14 105 0 124 3 163 23 71 38 89 80 89
210 l0 107 2050 0 2050 0 0 -107 c0 -130 18 -172 89 -210 39 -20 58 -23 163
-23 77 0 130 5 151 14 43 17 95 78 102 118 3 18 4 1122 3 2454 l-3 2420 -25
37 c-42 62 -87 77 -227 77 -106 0 -125 -3 -164 -23 -71 -38 -89 -80 -89 -209
l0 -108 -2050 0 -2050 0 0 108 c0 129 -18 171 -89 209 -39 20 -57 23 -165 23
-79 -1 -131 -5 -151 -14z m235 -2546 l0 -2390 -85 0 -85 0 0 2390 0 2390 85 0
85 0 0 -2390z m4610 0 l0 -2390 -85 0 -85 0 0 2390 0 2390 85 0 85 0 0 -2390z
m-340 1965 l0 -85 -2050 0 -2050 0 0 85 0 85 2050 0 2050 0 0 -85z m0 -980 l0
-725 -94 0 -95 0 10 32 c5 18 9 233 9 479 0 500 -2 518 -67 590 -20 22 -55 50
-77 62 -41 22 -47 22 -541 22 l-500 0 -52 -29 c-49 -27 -54 -28 -71 -13 -49
44 -80 47 -572 47 -492 0 -523 -3 -572 -47 -17 -15 -22 -14 -71 13 l-52 29
-500 0 c-494 0 -500 0 -541 -22 -22 -12 -57 -40 -77 -62 -65 -72 -67 -90 -67
-590 0 -246 4 -461 9 -479 l10 -32 -95 0 -94 0 0 725 0 725 2050 0 2050 0 0
-725z m-3588 58 c3 -228 4 -240 26 -275 33 -53 85 -82 147 -82 41 0 62 7 112
37 l62 38 57 -38 c47 -31 65 -37 108 -37 65 0 109 23 144 76 l27 41 3 239 3
238 54 0 c43 0 60 -5 82 -24 l28 -24 3 -444 c1 -243 0 -453 -3 -465 -3 -12
-15 -32 -27 -43 -21 -19 -33 -20 -483 -20 l-462 0 -24 26 -24 26 0 460 0 460
28 24 c22 19 39 24 82 24 l53 0 4 -237z m518 27 c0 -115 -3 -210 -7 -210 -5 0
-33 16 -63 35 -43 28 -64 35 -105 35 -41 0 -62 -7 -105 -35 -30 -19 -58 -35
-62 -35 -5 0 -8 95 -8 210 l0 210 175 0 175 0 0 -210z m680 -20 c0 -254 4
-276 59 -323 68 -57 139 -56 231 3 l49 32 58 -36 c32 -19 74 -38 94 -41 41 -8
100 13 138 48 47 43 51 70 51 317 l0 230 50 0 c55 0 104 -20 114 -45 3 -9 6
-221 6 -471 l0 -455 -25 -24 -24 -25 -461 0 -461 0 -24 25 -25 24 0 459 c0
351 3 462 13 474 21 27 50 37 105 38 l52 0 0 -230z m510 20 c0 -115 -3 -210
-6 -210 -3 0 -26 15 -52 33 -41 28 -55 32 -112 32 -57 0 -71 -4 -112 -32 -26
-18 -49 -33 -52 -33 -3 0 -6 95 -6 210 l0 210 170 0 170 0 0 -210z m682 -28
l3 -239 27 -41 c35 -53 79 -76 144 -76 43 0 61 6 108 37 31 20 58 37 61 37 3
0 30 -17 61 -37 47 -31 65 -37 108 -37 63 0 115 28 148 82 22 35 23 47 26 275
l4 237 53 0 c43 0 60 -5 82 -24 l28 -24 0 -460 0 -460 -24 -26 -24 -26 -464 0
c-448 0 -464 1 -483 20 -11 11 -22 30 -25 42 -3 13 -4 223 -3 466 l3 444 28
24 c22 19 39 24 82 24 l54 0 3 -238z m518 28 c0 -115 -3 -210 -7 -210 -3 0
-29 14 -56 32 -35 22 -65 33 -103 36 -49 4 -60 1 -113 -32 -33 -20 -62 -36
-65 -36 -3 0 -6 95 -6 210 l0 210 175 0 175 0 0 -210z m675 -1070 l0 -85
-2045 0 -2045 0 -3 74 c-2 41 -1 80 2 88 5 11 344 13 2048 11 l2043 -3 0 -85z
m5 -985 l0 -725 -87 0 -88 0 0 502 0 503 -23 47 c-13 27 -42 64 -65 83 -74 63
-89 65 -592 65 -480 0 -508 -2 -574 -49 -18 -13 -32 -17 -36 -11 -3 6 -25 20
-48 33 -42 22 -44 22 -537 22 -493 0 -495 0 -537 -22 -23 -13 -45 -27 -48 -33
-4 -6 -18 -2 -36 11 -66 47 -94 49 -574 49 -524 0 -526 0 -606 -80 -81 -81
-81 -81 -77 -640 l3 -480 -87 0 -88 0 0 725 0 725 2050 0 2050 0 0 -725z
m-3590 93 c0 -224 7 -275 38 -317 27 -37 91 -71 133 -71 34 0 92 24 149 62 24
16 27 16 82 -19 72 -45 130 -53 184 -25 94 48 103 80 104 361 l0 223 60 -4
c45 -3 66 -10 83 -26 22 -22 22 -23 25 -469 3 -482 2 -492 -49 -518 -41 -22
-886 -22 -928 -1 -50 26 -51 35 -51 502 0 374 2 439 16 465 18 36 43 48 107
48 l47 1 0 -212z m518 0 c1 -115 0 -208 -2 -208 -3 0 -35 16 -71 36 -56 31
-73 36 -111 31 -26 -2 -67 -18 -95 -36 -28 -17 -55 -31 -60 -31 -10 0 -13 403
-2 414 4 3 81 5 172 4 l166 -3 3 -207z m682 -21 c0 -225 1 -236 23 -277 16
-30 37 -51 68 -68 62 -33 121 -27 194 22 l55 36 55 -36 c73 -49 132 -55 194
-22 31 17 52 38 68 68 22 41 23 52 23 277 l0 233 54 0 c44 0 60 -5 85 -26 l31
-26 0 -458 0 -459 -24 -28 -24 -28 -462 0 -462 0 -24 28 -24 28 0 459 0 458
31 26 c25 21 41 26 85 26 l54 0 0 -233z m510 18 l0 -215 -57 37 c-48 33 -64
38 -113 38 -49 0 -65 -5 -113 -38 l-57 -37 0 215 0 215 170 0 170 0 0 -215z
m680 -7 c1 -280 10 -312 104 -360 54 -28 112 -20 184 25 55 35 58 35 82 19 57
-38 115 -62 149 -62 42 0 106 34 133 71 31 42 38 93 38 317 l0 212 45 0 c57 0
93 -17 111 -51 19 -37 21 -883 2 -924 -25 -54 -30 -55 -503 -55 -473 0 -478 1
-503 55 -18 38 -17 890 1 925 17 33 53 50 110 50 l47 0 0 -222z m518 10 c1
-127 -1 -208 -7 -208 -5 0 -32 14 -60 31 -32 20 -68 33 -98 36 -41 4 -56 0
-107 -31 -32 -20 -62 -36 -67 -36 -10 0 -12 403 -2 414 4 3 81 5 172 4 l166
-3 3 -207z m682 -1073 l0 -85 -2050 0 -2050 0 0 85 0 85 2050 0 2050 0 0 -85z"/>
</g>
</svg>
