<?xml version="1.0" encoding="utf-8"?>
<svg version="1.0" xmlns="http://www.w3.org/2000/svg" width="90.000000pt" height="90.000000pt" viewBox="0 0 90.000000 90.000000" preserveAspectRatio="xMidYMid meet">
  <g transform="translate(0.000000,90.000000) scale(0.100000,-0.100000)" fill="#000000" stroke="none">
    <path d="M 368.61 762.169 C 294.689 712.214 299.895 602.851 309.646 575.96 C 312.019 569.416 290.916 548.644 312.26 500.402 C 319.524 483.985 329.302 482.464 337.96 430.118 C 339.598 420.216 351.932 383.487 353.814 373.477 C 355.222 365.987 361.583 324.525 341 306 C 331 297 291 279 252 266 C 140 230 105 199 93 126 L 87 90 L 284 90 L 480 90 L 480 205 C 480 307 482 322 500 340 C 511 351 525.826 357.247 530 360 C 533.981 362.625 538.402 367.077 540 370 C 540.869 371.589 548.864 383.073 556.484 398.902 C 567.071 420.893 577.581 449.377 579.31 452.861 C 583.934 462.18 590.67 498.763 595.041 505.188 C 616.408 546.804 605.524 542.259 607.344 573.994 C 609.425 610.283 603.78 674.3 596.825 712.65 C 584.825 727.65 574 757 564 759 C 554 761 532 773 517 786 C 480 817 424.19 799.73 368.61 762.169 Z"/>
    <path d="M544 287 c-2 -7 -3 -74 -2 -148 l3 -134 175 0 175 0 0 145 0 145 -173 3 c-136 2 -174 0 -178 -11z m236 -62 c0 -12 -13 -15 -60 -15 -47 0 -60 3 -60 15 0 12 13 15 60 15 47 0 60 -3 60 -15z"/>
  </g>
</svg>